<svg xmlns="http://www.w3.org/2000/svg" height="1024" preserveAspectRatio="none" style="display: block;" version="1.1" viewBox="0 0 2048 2048" width="1024">
<defs>
	<linearGradient gradientUnits="userSpaceOnUse" id="Gradient1" x1="1068.9" x2="1209.06" y1="990.549" y2="854.302">
		<stop class="stop0" offset="0" stop-color="rgb(49,3,2)" stop-opacity="1"></stop>
		<stop class="stop1" offset="1" stop-color="rgb(108,4,3)" stop-opacity="1"></stop>
	</linearGradient>
</defs>
<path d="M 1028.16 506.839 L 1029.02 505.789 C 1049.19 480.646 1073.68 352.455 1079.55 316.427 C 1081.62 303.469 1083.59 290.496 1085.46 277.507 C 1086.66 269.156 1087.18 250.421 1097.86 248.203 C 1107.31 253.393 1100.54 270.217 1099.84 278.959 C 1096.83 316.474 1090.35 354.359 1090.39 392.001 C 1090.4 399.584 1094.8 410.169 1097.58 417.139 C 1108.33 442.186 1140.19 467.539 1168.49 458.862 C 1186.89 453.221 1205.18 438.756 1224.7 444.108 C 1231.46 453.13 1217.89 469.781 1214.33 479.116 C 1209.71 491.211 1193.44 524.272 1202.5 535.623 C 1213.29 549.144 1236.74 559.29 1252.59 564.358 C 1262.48 557.637 1267.94 547.76 1275.88 539.485 C 1285.87 529.08 1317.13 479.214 1331.71 505.485 C 1335.11 511.637 1336.83 518.575 1336.7 525.603 C 1336.53 537.413 1326.77 564.875 1341.8 567.671 C 1364.69 571.928 1396.08 554.73 1418.3 550.562 C 1428.99 548.657 1439.94 548.662 1450.63 550.578 C 1457.87 551.812 1466.88 555.093 1470.19 561.93 C 1476.53 575.044 1478.2 610.562 1474.13 623.769 C 1469.52 638.738 1448.23 659.199 1437.07 669.602 C 1442.31 683.755 1454.24 700.674 1461.79 715.227 C 1470.41 711.336 1476.32 707.271 1484.2 703.348 C 1497.48 724.227 1508.03 742.823 1528.98 757.44 C 1540.74 765.651 1544.97 771.231 1560.18 768.742 C 1549.96 781.558 1522.26 816.856 1541.69 833.64 C 1553.51 843.849 1576.79 832.746 1590.23 838.208 C 1597.92 840.996 1600.77 852.739 1609.88 850.786 C 1616.4 849.878 1625.58 845.332 1631.77 849.268 C 1636.27 852.125 1638.41 858.576 1633.82 862.356 C 1609.92 882.017 1600.21 889.58 1600.17 923.006 C 1600.17 929.47 1600.28 935.933 1600.48 942.393 C 1579.3 955.206 1536.19 982.913 1552.85 1017.6 C 1556.21 1024.6 1565.72 1028.6 1572.79 1031.41 C 1585.43 1028.25 1591.02 1029.19 1604.36 1024.33 C 1614.54 1020.63 1630.77 1009.16 1638.48 1008.76 L 1640.1 1009.85 C 1640.22 1017.39 1630.79 1029.16 1634.8 1036.14 C 1646.89 1045.63 1687.24 1037.6 1689.16 1045.71 C 1685.15 1049.22 1660.87 1053.35 1653.89 1054.63 C 1619.93 1060.87 1582.83 1086.6 1580.21 1124.28 C 1579.99 1127.45 1579.94 1130.63 1580.07 1133.8 C 1584.13 1140.64 1585.17 1142.11 1591.56 1146.66 C 1579.79 1163.35 1573.83 1174.92 1576.97 1196.57 C 1580.72 1220.55 1601.71 1242.99 1621.33 1255.81 C 1653.94 1276.88 1689.61 1294.57 1726.89 1305.59 C 1744.27 1310.73 1762.27 1313.45 1779 1320.16 C 1791.95 1325.15 1793.86 1354.79 1777.16 1354.12 C 1754.08 1353.18 1729.28 1339.63 1707.67 1332.03 C 1673.44 1320 1638.41 1309.81 1603.18 1301.09 C 1588.79 1297.54 1572.69 1296.27 1558.65 1292.46 C 1542.17 1290.24 1523.03 1287.2 1506.65 1286.37 C 1495.12 1287.28 1482.25 1288.68 1474.35 1298.5 C 1470.03 1303.91 1468.04 1310.81 1468.83 1317.68 C 1472.42 1347.52 1533.32 1380.9 1533.88 1394.91 L 1532.89 1396.06 C 1526.53 1394.85 1515.01 1385.33 1509.41 1381.43 C 1460.86 1347.61 1403.71 1369.05 1434.14 1434.39 C 1437.6 1440.64 1449.31 1453.76 1449.9 1458.51 C 1446.54 1462.06 1437.07 1456.88 1431.78 1456.89 C 1425.12 1456.91 1418.14 1456.72 1412.74 1461.74 C 1404.47 1470.44 1411.38 1484.01 1418.92 1490.71 C 1433.44 1503.61 1457.55 1511.15 1459.45 1533.46 C 1460.72 1548.41 1451.93 1558.4 1436.95 1559.47 C 1431.25 1553.67 1424.27 1547.41 1418.27 1541.78 C 1408.79 1531.01 1403.21 1523.66 1394.87 1511.75 C 1385.62 1507.47 1377.75 1506.28 1367.62 1506.08 C 1355.91 1516.22 1354.05 1525.23 1346.86 1538.84 C 1345.2 1541.99 1342.52 1546.32 1341.44 1549.3 C 1318.46 1545.08 1298.26 1544.3 1276.5 1552.96 C 1242 1570.92 1280.83 1608.7 1268.98 1622.62 C 1261.36 1623.03 1251.83 1598.16 1248.03 1591.95 C 1231.86 1565.48 1180.28 1544.17 1179.14 1592.21 C 1178.96 1600.06 1187.02 1623.43 1185.92 1624.78 C 1172.74 1618.52 1159.01 1600.21 1143.8 1600.17 C 1129.54 1600.14 1139.17 1617.98 1141.26 1623.41 C 1143.19 1625.21 1148.01 1631.94 1149.04 1634.11 C 1156.96 1650.68 1204.94 1690.07 1208.92 1702.95 L 1208.58 1705.57 L 1207.09 1706.41 C 1187.68 1698.1 1164.67 1670.9 1141.77 1664.47 C 1138.03 1663.42 1134.12 1660.59 1130.02 1660.25 C 1119.53 1661.68 1108.15 1662.47 1098.04 1665.59 C 1086 1669.31 1078.04 1677.27 1070.66 1687.01 C 1028.92 1742.12 1061.11 1815.28 1037.79 1855.48 C 1035.13 1860.08 1029.94 1865.64 1024.38 1866.41 C 1021.22 1866.85 1018.69 1865.22 1016.56 1863.1 C 998.394 1845.09 1014.25 1806.36 1020.8 1786.2 C 1024.91 1773.78 1028.8 1761.29 1032.47 1748.74 C 1038.35 1728.02 1043.98 1704.45 1043.16 1682.84 C 1042.86 1674.85 1041.33 1665.27 1034.93 1659.77 C 1029.25 1654.89 1021.77 1653.69 1014.53 1654.49 C 929.128 1663.97 855.797 1845.86 824.478 1915.79 C 819.376 1927.18 806.562 1962.02 799.424 1969.43 C 797.051 1971.89 793.93 1973.16 790.481 1972.73 C 787.338 1972.34 784.309 1970.2 782.413 1967.72 C 778.45 1962.54 778.612 1955.45 780.378 1949.46 C 783.685 1938.25 792.214 1927.5 797.87 1917.25 C 807.05 1900.61 815.981 1883.42 823.887 1866.14 C 828.954 1855.06 835.639 1841.1 831.693 1828.84 C 829.338 1821.53 826.84 1814.81 825.827 1807.13 C 823.699 1791 825.443 1775.55 827.947 1759.61 C 830.81 1758.3 861.578 1746.78 862.583 1746.72 C 877.044 1745.88 915.971 1701.3 893.937 1696.59 C 881.172 1699.61 869.589 1721.78 857.774 1719.74 C 851.178 1713.9 845.124 1687.84 842.748 1678.66 C 839.101 1664.58 814.722 1651.07 801.48 1644.55 C 795.596 1644.96 788.378 1646.04 782.4 1646.79 C 769.686 1641.36 762.479 1631.02 747.997 1623.42 C 720.568 1628.07 711.671 1633.03 699.475 1602.75 C 696.621 1595.67 691.468 1584.62 687.695 1577.82 L 687.093 1576.75 C 669.949 1578.46 656.464 1581.39 639.913 1585.67 C 637.561 1586.28 636.176 1585.37 634.206 1584.37 C 631.374 1578.46 645.349 1532.64 647.845 1522.64 C 626.306 1499.55 579.743 1460.79 554.216 1439.91 C 542.834 1438.66 490.663 1440.99 484.684 1433.96 C 473.941 1421.34 469.472 1392.74 455.228 1379.56 C 440.484 1365.91 422.381 1367.82 408.364 1353.65 C 385.984 1329.52 400.217 1303.6 400.219 1279 L 400.209 1277.37 C 393.407 1272.31 390.697 1270.06 384.762 1264.06 C 396.541 1256.08 409.132 1248.96 420.834 1240.84 C 429.655 1234.73 439.71 1227.17 432.631 1215.77 C 430.054 1214.42 429.331 1214.13 427.008 1212.29 C 427.171 1208.09 434.661 1201 435.975 1191.91 C 437.308 1182.68 436.952 1167.5 429.594 1160.4 C 411.254 1143.62 384.329 1139.52 363.985 1124.73 C 358.585 1120.8 342.23 1109.4 347.194 1100.37 C 357.443 1082.3 388.699 1088.38 405.029 1085.62 C 444.532 1078.94 446.396 1053.03 432.356 1023.53 C 433.405 1023.93 434.466 1024.3 435.537 1024.63 C 441.265 1026.45 455.744 1032.1 457.783 1023.87 C 454.512 1008.72 428.368 988.568 430.944 974.683 C 434.649 968.129 446.197 968.487 452.565 970.182 C 449.337 956.994 414.373 932.167 401.369 927.197 C 391.627 923.473 372.72 915.472 371.022 904.477 C 373.438 894.114 386.694 893.399 395.317 892.539 C 434.51 886.405 490.036 911.869 520.437 873.616 C 538.641 850.71 527.258 835.903 506.92 821.116 L 508.58 817.966 C 521.689 820.143 546.21 826.557 555.705 815.229 C 556.08 784.091 522.534 770.963 500.027 757.74 C 469.174 739.613 439.857 726.745 405.407 717.637 C 393.718 714.547 374.086 704.483 366.977 694.585 C 364.181 690.692 363.875 681.929 369.814 680.379 C 386.627 676.03 407.794 689.395 422.067 694.186 C 451.973 704.223 510.655 739.484 540.701 730.468 C 551.921 724.35 559.386 715.604 559.992 702.919 C 561.67 667.783 538.95 646.093 513.368 626.286 C 505.673 618.802 495.608 610.434 488.034 603.244 C 475.191 591.052 411.57 542.153 413.68 524.636 C 418.425 517.301 431.006 519.926 438.127 521.831 C 442.201 522.921 458.776 525.657 461.014 527.577 C 502.78 563.355 548.264 590.007 598.176 613.381 C 613.708 620.654 656.727 640.776 670.028 618.191 C 678.911 603.108 653.461 585.741 650.045 574.614 C 654.624 573.143 692.518 612.928 699.646 618.273 C 702.99 620.73 706.688 622.665 710.612 624.011 C 741.161 634.772 760.696 611.41 757.194 582.244 C 754.12 556.651 743.841 539.076 732.347 516.643 C 742.382 525.41 752.771 534.604 762.151 544.075 C 769.125 548.85 782.128 555.934 789.906 550.986 C 835.043 522.271 797.458 445.279 783.909 413.441 C 786.21 410.826 786.232 410.345 789.588 409.295 C 797.173 409.702 824.282 434.192 830.56 440.362 C 853.212 462.623 947.817 542.357 978.677 516.783 C 994.865 502.647 1008.02 501.685 1028.16 506.839 z" fill="rgb(122,22,32)" transform="translate(0,0)"></path>
<path d="M 626.631 692.488 L 634.289 699.126 C 652.469 714.724 670.262 729.686 687.796 746.007 L 689.146 747.374 C 710.824 770.322 735.562 792.845 758.006 815.23 C 763.861 821.07 785.979 843.302 791.025 846.891 C 793.756 848.858 797.027 849.935 800.392 849.975 C 803.411 850.018 807.801 848.832 810.667 847.797 C 816.023 848.946 819.782 849.637 824.601 852.214 C 826.171 855.446 826.559 858.454 827.222 861.985 C 827.808 864.994 828.439 867.993 829.115 870.982 C 835.191 896.759 860.021 924.744 888.969 918.08 C 890.29 917.776 892.553 913.314 893.195 912.248 C 901.426 918.988 921.875 932.481 922.403 942.134 C 920.934 966.165 933.994 994.358 950.41 1011.54 C 981.778 1044.38 1014.99 1076.33 1063.06 1079.51 C 1069.43 1079.93 1079.77 1079.25 1085.36 1076.8 C 1090.38 1087.75 1100.77 1104.21 1104.3 1113.68 C 1112.92 1114.07 1124.21 1114.64 1130.07 1122.01 C 1151.15 1148.54 1171.82 1175.42 1193.5 1201.48 C 1197.32 1206.07 1201.22 1210.45 1204.52 1215.44 L 1190.82 1215.68 C 1193.07 1220.15 1204.42 1241.83 1204.99 1244.43 C 1210.47 1249.54 1220.55 1253.54 1225.14 1259.41 C 1246.65 1286.88 1267.83 1314.67 1289.14 1342.31 C 1293.97 1348.6 1305.19 1362.43 1307.78 1368.9 C 1310.08 1372.33 1313.32 1375.75 1313.08 1379.21 C 1310.94 1379.94 1311.4 1379.86 1309.11 1380.17 C 1315.84 1380.86 1317.97 1383.54 1322.2 1389.01 C 1342.55 1415.37 1359.03 1446.08 1381.12 1470.9 C 1386.69 1477.16 1399.36 1477.87 1407.3 1478.43 C 1402.95 1474.33 1399.63 1471.24 1397.82 1464.49 C 1395.05 1454.14 1391.2 1421.63 1410.66 1426.38 C 1417.65 1428.08 1427.65 1437.06 1434.14 1434.39 C 1437.6 1440.64 1449.31 1453.76 1449.9 1458.51 C 1446.54 1462.06 1437.07 1456.88 1431.78 1456.89 C 1425.12 1456.91 1418.14 1456.72 1412.74 1461.74 C 1404.47 1470.44 1411.38 1484.01 1418.92 1490.71 C 1433.44 1503.61 1457.55 1511.15 1459.45 1533.46 C 1460.72 1548.41 1451.93 1558.4 1436.95 1559.47 C 1431.25 1553.67 1424.27 1547.41 1418.27 1541.78 C 1408.79 1531.01 1403.21 1523.66 1394.87 1511.75 C 1385.62 1507.47 1377.75 1506.28 1367.62 1506.08 C 1355.91 1516.22 1354.05 1525.23 1346.86 1538.84 C 1345.2 1541.99 1342.52 1546.32 1341.44 1549.3 C 1318.46 1545.08 1298.26 1544.3 1276.5 1552.96 C 1242 1570.92 1280.83 1608.7 1268.98 1622.62 C 1261.36 1623.03 1251.83 1598.16 1248.03 1591.95 C 1231.86 1565.48 1180.28 1544.17 1179.14 1592.21 C 1178.96 1600.06 1187.02 1623.43 1185.92 1624.78 C 1172.74 1618.52 1159.01 1600.21 1143.8 1600.17 C 1129.54 1600.14 1139.17 1617.98 1141.26 1623.41 C 1143.19 1625.21 1148.01 1631.94 1149.04 1634.11 C 1156.96 1650.68 1204.94 1690.07 1208.92 1702.95 L 1208.58 1705.57 L 1207.09 1706.41 C 1187.68 1698.1 1164.67 1670.9 1141.77 1664.47 C 1138.03 1663.42 1134.12 1660.59 1130.02 1660.25 C 1119.53 1661.68 1108.15 1662.47 1098.04 1665.59 C 1086 1669.31 1078.04 1677.27 1070.66 1687.01 C 1028.92 1742.12 1061.11 1815.28 1037.79 1855.48 C 1035.13 1860.08 1029.94 1865.64 1024.38 1866.41 C 1021.22 1866.85 1018.69 1865.22 1016.56 1863.1 C 998.394 1845.09 1014.25 1806.36 1020.8 1786.2 C 1024.91 1773.78 1028.8 1761.29 1032.47 1748.74 C 1038.35 1728.02 1043.98 1704.45 1043.16 1682.84 C 1042.86 1674.85 1041.33 1665.27 1034.93 1659.77 C 1029.25 1654.89 1021.77 1653.69 1014.53 1654.49 C 929.128 1663.97 855.797 1845.86 824.478 1915.79 C 819.376 1927.18 806.562 1962.02 799.424 1969.43 C 797.051 1971.89 793.93 1973.16 790.481 1972.73 C 787.338 1972.34 784.309 1970.2 782.413 1967.72 C 778.45 1962.54 778.612 1955.45 780.378 1949.46 C 783.685 1938.25 792.214 1927.5 797.87 1917.25 C 807.05 1900.61 815.981 1883.42 823.887 1866.14 C 828.954 1855.06 835.639 1841.1 831.693 1828.84 C 829.338 1821.53 826.84 1814.81 825.827 1807.13 C 823.699 1791 825.443 1775.55 827.947 1759.61 C 830.81 1758.3 861.578 1746.78 862.583 1746.72 C 877.044 1745.88 915.971 1701.3 893.937 1696.59 C 881.172 1699.61 869.589 1721.78 857.774 1719.74 C 851.178 1713.9 845.124 1687.84 842.748 1678.66 C 839.101 1664.58 814.722 1651.07 801.48 1644.55 C 795.596 1644.96 788.378 1646.04 782.4 1646.79 C 769.686 1641.36 762.479 1631.02 747.997 1623.42 C 720.568 1628.07 711.671 1633.03 699.475 1602.75 C 696.621 1595.67 691.468 1584.62 687.695 1577.82 L 687.093 1576.75 C 669.949 1578.46 656.464 1581.39 639.913 1585.67 C 637.561 1586.28 636.176 1585.37 634.206 1584.37 C 631.374 1578.46 645.349 1532.64 647.845 1522.64 C 626.306 1499.55 579.743 1460.79 554.216 1439.91 C 542.834 1438.66 490.663 1440.99 484.684 1433.96 C 473.941 1421.34 469.472 1392.74 455.228 1379.56 C 440.484 1365.91 422.381 1367.82 408.364 1353.65 C 385.984 1329.52 400.217 1303.6 400.219 1279 L 400.209 1277.37 C 393.407 1272.31 390.697 1270.06 384.762 1264.06 C 396.541 1256.08 409.132 1248.96 420.834 1240.84 C 429.655 1234.73 439.71 1227.17 432.631 1215.77 C 430.054 1214.42 429.331 1214.13 427.008 1212.29 C 427.171 1208.09 434.661 1201 435.975 1191.91 C 437.308 1182.68 436.952 1167.5 429.594 1160.4 C 411.254 1143.62 384.329 1139.52 363.985 1124.73 C 358.585 1120.8 342.23 1109.4 347.194 1100.37 C 357.443 1082.3 388.699 1088.38 405.029 1085.62 C 444.532 1078.94 446.396 1053.03 432.356 1023.53 C 433.405 1023.93 434.466 1024.3 435.537 1024.63 C 441.265 1026.45 455.744 1032.1 457.783 1023.87 C 454.512 1008.72 428.368 988.568 430.944 974.683 C 434.649 968.129 446.197 968.487 452.565 970.182 C 449.337 956.994 414.373 932.167 401.369 927.197 C 391.627 923.473 372.72 915.472 371.022 904.477 C 373.438 894.114 386.694 893.399 395.317 892.539 C 434.51 886.405 490.036 911.869 520.437 873.616 C 538.641 850.71 527.258 835.903 506.92 821.116 L 508.58 817.966 C 521.689 820.143 546.21 826.557 555.705 815.229 C 580.592 823.113 605.347 831.478 630.018 840.021 C 640.254 843.566 660.732 854.052 669.536 856.116 C 666.474 848.379 648.547 823.978 642.853 816.036 C 655.171 818.955 669.7 826.978 680.385 823.827 C 683.69 821.51 683.77 820.046 685.265 816.03 C 682.165 804.28 673.698 790.569 668.7 779.296 C 655.907 750.437 639.304 721.083 626.631 692.488 z" fill="rgb(122,22,32)" transform="translate(0,0)"></path>
<path d="M 432.356 1023.53 C 433.405 1023.93 434.466 1024.3 435.537 1024.63 C 441.265 1026.45 455.744 1032.1 457.783 1023.87 C 454.512 1008.72 428.368 988.568 430.944 974.683 C 434.649 968.129 446.197 968.487 452.565 970.182 C 453.857 970.673 454.729 971.213 455.946 971.181 C 458.155 972.479 461.656 974.404 463.67 975.78 C 466.462 984.985 522.306 1049.36 532.628 1061.07 C 595.276 1132.13 654.194 1207.77 719.528 1276.22 C 745.716 1303.65 772.651 1326.18 801.124 1350.83 L 873.14 1413.72 C 906.358 1442.85 939.426 1472.16 972.343 1501.64 C 1008.6 1533.49 1045.48 1566.92 1082.47 1597.41 C 1098.05 1610.3 1113.71 1623.09 1129.45 1635.79 C 1133.4 1638.95 1155.22 1656.83 1157.72 1657.99 C 1152.86 1651.66 1145.51 1643.28 1142.36 1636.45 L 1145.67 1634.53 L 1145.2 1631.61 C 1142.59 1628.61 1142.12 1627.94 1140.02 1624.54 L 1141.26 1623.41 C 1143.19 1625.21 1148.01 1631.94 1149.04 1634.11 C 1156.96 1650.68 1204.94 1690.07 1208.92 1702.95 L 1208.58 1705.57 L 1207.09 1706.41 C 1187.68 1698.1 1164.67 1670.9 1141.77 1664.47 C 1138.03 1663.42 1134.12 1660.59 1130.02 1660.25 C 1119.53 1661.68 1108.15 1662.47 1098.04 1665.59 C 1086 1669.31 1078.04 1677.27 1070.66 1687.01 C 1028.92 1742.12 1061.11 1815.28 1037.79 1855.48 C 1035.13 1860.08 1029.94 1865.64 1024.38 1866.41 C 1021.22 1866.85 1018.69 1865.22 1016.56 1863.1 C 998.394 1845.09 1014.25 1806.36 1020.8 1786.2 C 1024.91 1773.78 1028.8 1761.29 1032.47 1748.74 C 1038.35 1728.02 1043.98 1704.45 1043.16 1682.84 C 1042.86 1674.85 1041.33 1665.27 1034.93 1659.77 C 1029.25 1654.89 1021.77 1653.69 1014.53 1654.49 C 929.128 1663.97 855.797 1845.86 824.478 1915.79 C 819.376 1927.18 806.562 1962.02 799.424 1969.43 C 797.051 1971.89 793.93 1973.16 790.481 1972.73 C 787.338 1972.34 784.309 1970.2 782.413 1967.72 C 778.45 1962.54 778.612 1955.45 780.378 1949.46 C 783.685 1938.25 792.214 1927.5 797.87 1917.25 C 807.05 1900.61 815.981 1883.42 823.887 1866.14 C 828.954 1855.06 835.639 1841.1 831.693 1828.84 C 829.338 1821.53 826.84 1814.81 825.827 1807.13 C 823.699 1791 825.443 1775.55 827.947 1759.61 C 830.81 1758.3 861.578 1746.78 862.583 1746.72 C 877.044 1745.88 915.971 1701.3 893.937 1696.59 C 881.172 1699.61 869.589 1721.78 857.774 1719.74 C 851.178 1713.9 845.124 1687.84 842.748 1678.66 C 839.101 1664.58 814.722 1651.07 801.48 1644.55 C 795.596 1644.96 788.378 1646.04 782.4 1646.79 C 769.686 1641.36 762.479 1631.02 747.997 1623.42 C 720.568 1628.07 711.671 1633.03 699.475 1602.75 C 696.621 1595.67 691.468 1584.62 687.695 1577.82 L 687.093 1576.75 C 669.949 1578.46 656.464 1581.39 639.913 1585.67 C 637.561 1586.28 636.176 1585.37 634.206 1584.37 C 631.374 1578.46 645.349 1532.64 647.845 1522.64 C 626.306 1499.55 579.743 1460.79 554.216 1439.91 C 542.834 1438.66 490.663 1440.99 484.684 1433.96 C 473.941 1421.34 469.472 1392.74 455.228 1379.56 C 440.484 1365.91 422.381 1367.82 408.364 1353.65 C 385.984 1329.52 400.217 1303.6 400.219 1279 L 400.209 1277.37 C 393.407 1272.31 390.697 1270.06 384.762 1264.06 C 396.541 1256.08 409.132 1248.96 420.834 1240.84 C 429.655 1234.73 439.71 1227.17 432.631 1215.77 C 430.054 1214.42 429.331 1214.13 427.008 1212.29 C 427.171 1208.09 434.661 1201 435.975 1191.91 C 437.308 1182.68 436.952 1167.5 429.594 1160.4 C 411.254 1143.62 384.329 1139.52 363.985 1124.73 C 358.585 1120.8 342.23 1109.4 347.194 1100.37 C 357.443 1082.3 388.699 1088.38 405.029 1085.62 C 444.532 1078.94 446.396 1053.03 432.356 1023.53 z" fill="rgb(94,16,24)" transform="translate(0,0)"></path>
<path d="M 455.946 971.181 C 458.155 972.479 461.656 974.404 463.67 975.78 C 466.462 984.985 522.306 1049.36 532.628 1061.07 C 595.276 1132.13 654.194 1207.77 719.528 1276.22 C 745.716 1303.65 772.651 1326.18 801.124 1350.83 L 873.14 1413.72 C 906.358 1442.85 939.426 1472.16 972.343 1501.64 C 1008.6 1533.49 1045.48 1566.92 1082.47 1597.41 C 1098.05 1610.3 1113.71 1623.09 1129.45 1635.79 C 1133.4 1638.95 1155.22 1656.83 1157.72 1657.99 C 1152.86 1651.66 1145.51 1643.28 1142.36 1636.45 L 1145.67 1634.53 L 1145.2 1631.61 C 1142.59 1628.61 1142.12 1627.94 1140.02 1624.54 L 1141.26 1623.41 C 1143.19 1625.21 1148.01 1631.94 1149.04 1634.11 C 1156.96 1650.68 1204.94 1690.07 1208.92 1702.95 L 1208.58 1705.57 L 1207.09 1706.41 C 1187.68 1698.1 1164.67 1670.9 1141.77 1664.47 C 1138.03 1663.42 1134.12 1660.59 1130.02 1660.25 C 1104.99 1643.98 1082.83 1627.85 1052.44 1624.23 C 1045.72 1623.42 1029.12 1623.54 1024.27 1621.59 L 1024.25 1620.35 L 1027.41 1618.9 C 1021.44 1609.16 996.09 1589.1 985.456 1581.38 C 970.983 1570.98 949.896 1558.1 931.513 1564.67 C 925.575 1566.79 916.385 1581.74 910.245 1582.78 C 899.261 1576.5 899.899 1549.16 891.387 1539.08 C 876.336 1521.25 849.362 1544.4 835.484 1553.43 C 822.373 1561.96 809.33 1570.8 797.103 1580.25 C 809.923 1559.6 811.785 1554.28 813.833 1530.03 C 801.849 1511.69 774.034 1472.89 756.692 1460.34 C 733.388 1443.48 705.39 1457.24 679.177 1462.36 C 689.994 1441.56 683.317 1410.99 665.376 1395.05 C 654.579 1386.78 638.219 1386.21 625.402 1383.94 C 605.08 1380.34 587.155 1378.14 566.681 1380.31 C 578.012 1374.49 589.724 1371.07 600.796 1365.09 C 600.841 1352.65 601.597 1297.66 598.996 1290.23 C 589.195 1262.24 510.046 1224.31 483.183 1208.18 C 510.239 1200.35 531.919 1197.78 540.966 1167.33 C 521.62 1143.32 502.291 1124.5 480.647 1102.93 C 485.278 1102.98 489.911 1102.99 494.533 1102.63 C 499.369 1102.26 505.257 1101.23 508.222 1096.9 C 517.789 1082.93 479.8 1015.18 471.383 1000.27 C 467.149 992.774 456.62 979.245 455.946 971.181 z" fill="rgb(58,10,14)" transform="translate(0,0)"></path>
<path d="M 1027.41 1618.9 C 1099.23 1608.53 1110.77 1638.9 1165.6 1666.58 L 1157.72 1657.99 C 1152.86 1651.66 1145.51 1643.28 1142.36 1636.45 L 1145.67 1634.53 L 1145.2 1631.61 C 1142.59 1628.61 1142.12 1627.94 1140.02 1624.54 L 1141.26 1623.41 C 1143.19 1625.21 1148.01 1631.94 1149.04 1634.11 C 1156.96 1650.68 1204.94 1690.07 1208.92 1702.95 L 1208.58 1705.57 L 1207.09 1706.41 C 1187.68 1698.1 1164.67 1670.9 1141.77 1664.47 C 1138.03 1663.42 1134.12 1660.59 1130.02 1660.25 C 1104.99 1643.98 1082.83 1627.85 1052.44 1624.23 C 1045.72 1623.42 1029.12 1623.54 1024.27 1621.59 L 1024.25 1620.35 L 1027.41 1618.9 z" fill="rgb(138,28,43)" transform="translate(0,0)"></path>
<path d="M 626.631 692.488 L 634.289 699.126 C 652.469 714.724 670.262 729.686 687.796 746.007 L 689.146 747.374 C 710.824 770.322 735.562 792.845 758.006 815.23 C 763.861 821.07 785.979 843.302 791.025 846.891 C 793.756 848.858 797.027 849.935 800.392 849.975 C 803.411 850.018 807.801 848.832 810.667 847.797 C 816.023 848.946 819.782 849.637 824.601 852.214 C 826.171 855.446 826.559 858.454 827.222 861.985 C 827.808 864.994 828.439 867.993 829.115 870.982 C 835.191 896.759 860.021 924.744 888.969 918.08 C 890.29 917.776 892.553 913.314 893.195 912.248 C 901.426 918.988 921.875 932.481 922.403 942.134 C 920.934 966.165 933.994 994.358 950.41 1011.54 C 981.778 1044.38 1014.99 1076.33 1063.06 1079.51 C 1069.43 1079.93 1079.77 1079.25 1085.36 1076.8 C 1090.38 1087.75 1100.77 1104.21 1104.3 1113.68 C 1112.92 1114.07 1124.21 1114.64 1130.07 1122.01 C 1151.15 1148.54 1171.82 1175.42 1193.5 1201.48 C 1197.32 1206.07 1201.22 1210.45 1204.52 1215.44 L 1190.82 1215.68 C 1193.07 1220.15 1204.42 1241.83 1204.99 1244.43 C 1210.47 1249.54 1220.55 1253.54 1225.14 1259.41 C 1246.65 1286.88 1267.83 1314.67 1289.14 1342.31 C 1293.97 1348.6 1305.19 1362.43 1307.78 1368.9 C 1310.08 1372.33 1313.32 1375.75 1313.08 1379.21 C 1310.94 1379.94 1311.4 1379.86 1309.11 1380.17 C 1306.52 1382.69 1305.12 1383.57 1304.14 1387.06 C 1304.44 1394.25 1319.96 1409.13 1325.25 1414.85 C 1339.96 1430.59 1354.48 1446.51 1368.79 1462.61 C 1373.41 1467.8 1383.33 1478.38 1386.89 1483.8 C 1391.91 1488.82 1396.36 1494.28 1400.95 1499.71 C 1395.29 1496.55 1385.82 1490.86 1380.24 1488.3 C 1377.69 1483.17 1348.46 1465.93 1341.77 1461.7 C 1308.41 1441.01 1274.88 1420.61 1241.18 1400.5 C 1225.77 1391.25 1186.07 1364.21 1171.19 1360.24 C 1150.36 1354.69 1130.41 1364.48 1113.3 1375.15 C 1106.7 1358.93 1093.29 1327.89 1084.85 1313.95 C 1070.74 1307.48 1026.53 1291.77 1012.32 1287.56 C 990.368 1297.16 967.365 1310.3 945.398 1320.5 C 946.66 1312.95 950.745 1284.38 954.159 1279.76 C 965.995 1263.74 1021.21 1219.46 962.071 1224.63 C 952.497 1225.58 940.172 1223.62 930.926 1225.42 C 910.731 1229.35 891.088 1241.95 871.86 1249.74 C 869.831 1215.06 868.165 1180.36 866.863 1145.64 C 856.545 1136.53 843.818 1127.22 832.619 1119.09 C 815.485 1106.65 799.716 1114.74 782.979 1123.43 C 794.27 1109.64 814.916 1084.55 809.7 1065.71 C 805.797 1062.18 707.489 1039.55 693.856 1036.74 C 714.369 1031.88 735.841 1025.78 756.29 1020.32 C 755.051 1011.29 754.499 1004.7 754.049 995.586 C 737.875 988.918 704.165 977.467 687.985 973.002 C 698.779 967.523 715.295 958.763 719.286 946.971 C 730.601 913.543 697.88 899.045 680.236 877.65 C 675.448 871.844 672.293 862.86 669.536 856.116 C 666.474 848.379 648.547 823.978 642.853 816.036 C 655.171 818.955 669.7 826.978 680.385 823.827 C 683.69 821.51 683.77 820.046 685.265 816.03 C 682.165 804.28 673.698 790.569 668.7 779.296 C 655.907 750.437 639.304 721.083 626.631 692.488 z" fill="rgb(58,10,14)" transform="translate(0,0)"></path>
<path d="M 634.289 699.126 C 652.469 714.724 670.262 729.686 687.796 746.007 L 689.146 747.374 C 710.824 770.322 735.562 792.845 758.006 815.23 C 763.861 821.07 785.979 843.302 791.025 846.891 C 793.756 848.858 797.027 849.935 800.392 849.975 C 803.411 850.018 807.801 848.832 810.667 847.797 C 816.023 848.946 819.782 849.637 824.601 852.214 C 826.171 855.446 826.559 858.454 827.222 861.985 C 827.808 864.994 828.439 867.993 829.115 870.982 C 835.191 896.759 860.021 924.744 888.969 918.08 C 890.29 917.776 892.553 913.314 893.195 912.248 C 901.426 918.988 921.875 932.481 922.403 942.134 C 920.934 966.165 933.994 994.358 950.41 1011.54 C 981.778 1044.38 1014.99 1076.33 1063.06 1079.51 C 1069.43 1079.93 1079.77 1079.25 1085.36 1076.8 C 1090.38 1087.75 1100.77 1104.21 1104.3 1113.68 C 1112.92 1114.07 1124.21 1114.64 1130.07 1122.01 C 1151.15 1148.54 1171.82 1175.42 1193.5 1201.48 C 1197.32 1206.07 1201.22 1210.45 1204.52 1215.44 L 1190.82 1215.68 C 1193.07 1220.15 1204.42 1241.83 1204.99 1244.43 C 1210.47 1249.54 1220.55 1253.54 1225.14 1259.41 C 1246.65 1286.88 1267.83 1314.67 1289.14 1342.31 C 1293.97 1348.6 1305.19 1362.43 1307.78 1368.9 C 1310.08 1372.33 1313.32 1375.75 1313.08 1379.21 C 1310.94 1379.94 1311.4 1379.86 1309.11 1380.17 C 1306.52 1382.69 1305.12 1383.57 1304.14 1387.06 C 1304.44 1394.25 1319.96 1409.13 1325.25 1414.85 C 1339.96 1430.59 1354.48 1446.51 1368.79 1462.61 C 1373.41 1467.8 1383.33 1478.38 1386.89 1483.8 C 1371.9 1480.18 1363.68 1465.18 1352.94 1455.07 C 1337.09 1440.16 1321.56 1424.84 1305.61 1410.05 L 1025.41 1148.79 L 952.763 1079.95 C 929.287 1057.81 905.571 1036.69 883.711 1012.86 C 846.648 972.455 813.577 928.175 779.31 885.316 C 741.265 838.586 703.928 791.286 667.309 743.431 C 658.608 732.239 638.529 710.531 634.289 699.126 z" fill="rgb(94,16,24)" transform="translate(0,0)"></path>
<path d="M 1104.3 1113.68 C 1112.92 1114.07 1124.21 1114.64 1130.07 1122.01 C 1151.15 1148.54 1171.82 1175.42 1193.5 1201.48 C 1197.32 1206.07 1201.22 1210.45 1204.52 1215.44 L 1190.82 1215.68 C 1153.64 1214.73 1130.44 1196.09 1105.69 1169.7 C 1091.13 1154.17 1072.64 1122.41 1104.3 1113.68 z" fill="rgb(138,28,43)" transform="translate(0,0)"></path>
<path d="M 1307.78 1368.9 C 1281.47 1347.86 1255.73 1326.11 1230.6 1303.68 C 1220.23 1294.57 1171.15 1258.1 1189.63 1243.4 C 1195.51 1241.56 1199.07 1242.71 1204.99 1244.43 C 1210.47 1249.54 1220.55 1253.54 1225.14 1259.41 C 1246.65 1286.88 1267.83 1314.67 1289.14 1342.31 C 1293.97 1348.6 1305.19 1362.43 1307.78 1368.9 z" fill="rgb(138,28,43)" transform="translate(0,0)"></path>
<path d="M 463.67 975.78 C 475.427 983.186 488.301 990.384 498.005 1000.34 C 508.899 1011.45 565.298 1063.54 577.165 1063.05 C 578.918 1062.98 580.191 1062.61 581.797 1061.97 C 585.953 1063.27 595.847 1066.63 599.706 1067.42 L 597.336 1055.91 C 636.28 1080.94 678.612 1111.56 715.416 1140.21 C 722.152 1145.46 726.733 1154.65 727.559 1163.32 L 728.728 1161.24 C 734.004 1160.96 745.532 1164.6 751.038 1166.15 C 751.372 1179.13 751.579 1191.94 754.497 1204.65 C 780.283 1211.26 821.468 1258.51 840.505 1278.97 C 833.549 1281.55 828.433 1283.82 820.912 1285.37 C 825.785 1294.49 831.316 1302.82 836.912 1311.5 C 818.468 1331.32 843.475 1346.12 858.362 1357.31 C 880.277 1373.8 900.769 1380.5 926.143 1389.17 C 934.064 1404.97 934.207 1400.9 944.294 1410.01 C 905.91 1410.94 943.936 1455.94 980.506 1451.54 C 985.696 1461.9 992.714 1474.71 1000.86 1483.09 C 1000.71 1485.19 1000.22 1489.94 1001.55 1491.75 C 1013.9 1508.51 1035.86 1523.56 1051.14 1536.23 C 1057.61 1547.82 1077.47 1564.35 1087.71 1572.95 C 1089.76 1574.67 1097 1580.44 1098.16 1582.14 C 1104.73 1599.08 1115.01 1605.64 1126.93 1618.95 C 1129.11 1621.57 1130.56 1623.95 1133.59 1625.26 C 1134.74 1629.59 1139.01 1633.04 1142.36 1636.45 C 1145.51 1643.28 1152.86 1651.66 1157.72 1657.99 C 1155.22 1656.83 1133.4 1638.95 1129.45 1635.79 C 1113.71 1623.09 1098.05 1610.3 1082.47 1597.41 C 1045.48 1566.92 1008.6 1533.49 972.343 1501.64 C 939.426 1472.16 906.358 1442.85 873.14 1413.72 L 801.124 1350.83 C 772.651 1326.18 745.716 1303.65 719.528 1276.22 C 654.194 1207.77 595.276 1132.13 532.628 1061.07 C 522.306 1049.36 466.462 984.985 463.67 975.78 z" fill="rgb(94,16,24)" transform="translate(0,0)"></path>
<path d="M 597.336 1055.91 C 636.28 1080.94 678.612 1111.56 715.416 1140.21 C 722.152 1145.46 726.733 1154.65 727.559 1163.32 C 720.702 1185.79 689.6 1178.34 674.406 1169.24 C 649.678 1154.42 626.629 1132.4 613.388 1106.57 C 607.017 1094.14 603.525 1080.77 599.706 1067.42 L 597.336 1055.91 z" fill="rgb(138,28,43)" transform="translate(0,0)"></path>
<path d="M 754.497 1204.65 C 780.283 1211.26 821.468 1258.51 840.505 1278.97 C 833.549 1281.55 828.433 1283.82 820.912 1285.37 C 805.717 1288.6 795.597 1284.58 782.884 1275.21 C 779.821 1272.97 776.84 1270.61 773.945 1268.15 C 761.344 1257.65 714.967 1207.73 754.497 1204.65 z" fill="rgb(138,28,43)" transform="translate(0,0)"></path>
<path d="M 1309.11 1380.17 C 1315.84 1380.86 1317.97 1383.54 1322.2 1389.01 C 1342.55 1415.37 1359.03 1446.08 1381.12 1470.9 C 1386.69 1477.16 1399.36 1477.87 1407.3 1478.43 C 1402.95 1474.33 1399.63 1471.24 1397.82 1464.49 C 1395.05 1454.14 1391.2 1421.63 1410.66 1426.38 C 1417.65 1428.08 1427.65 1437.06 1434.14 1434.39 C 1437.6 1440.64 1449.31 1453.76 1449.9 1458.51 C 1446.54 1462.06 1437.07 1456.88 1431.78 1456.89 C 1425.12 1456.91 1418.14 1456.72 1412.74 1461.74 C 1404.47 1470.44 1411.38 1484.01 1418.92 1490.71 C 1433.44 1503.61 1457.55 1511.15 1459.45 1533.46 C 1460.72 1548.41 1451.93 1558.4 1436.95 1559.47 C 1431.25 1553.67 1424.27 1547.41 1418.27 1541.78 C 1408.79 1531.01 1403.21 1523.66 1394.87 1511.75 C 1385.62 1507.47 1377.75 1506.28 1367.62 1506.08 C 1355.91 1516.22 1354.05 1525.23 1346.86 1538.84 C 1345.2 1541.99 1342.52 1546.32 1341.44 1549.3 C 1318.46 1545.08 1298.26 1544.3 1276.5 1552.96 C 1271.2 1546.21 1225.79 1530.44 1210.99 1520.35 C 1212.32 1513.67 1217.82 1500.03 1216.74 1494.34 C 1214.37 1481.7 1188.64 1469.87 1179.19 1464.11 C 1154.87 1449.28 1126.26 1437.59 1103.63 1421 C 1114.2 1419.13 1179.5 1414.18 1188.27 1417.02 C 1229.61 1430.75 1270.15 1447.06 1311.14 1461.94 C 1333.96 1470.22 1357.04 1481.01 1380.24 1488.3 C 1385.82 1490.86 1395.29 1496.55 1400.95 1499.71 C 1396.36 1494.28 1391.91 1488.82 1386.89 1483.8 C 1383.33 1478.38 1373.41 1467.8 1368.79 1462.61 C 1354.48 1446.51 1339.96 1430.59 1325.25 1414.85 C 1319.96 1409.13 1304.44 1394.25 1304.14 1387.06 C 1305.12 1383.57 1306.52 1382.69 1309.11 1380.17 z" fill="rgb(138,28,43)" transform="translate(0,0)"></path>
<path d="M 452.565 970.182 C 449.337 956.994 414.373 932.167 401.369 927.197 C 391.627 923.473 372.72 915.472 371.022 904.477 C 373.438 894.114 386.694 893.399 395.317 892.539 C 397.095 893.83 397.073 894.391 398.251 895.461 C 421.069 916.183 470.001 931.528 498.987 935.436 C 504.309 932.656 507.452 929.811 512.322 926.505 C 521.038 920.588 535.456 925.204 544.785 927.72 C 571.604 935.998 599.874 943.661 615.52 969.182 C 617.041 971.663 618.204 975.469 617.982 978.36 C 611.982 985.155 565.242 981.919 553.702 982.426 C 493.205 985.08 544.498 1012.32 548.686 1027.76 C 565.363 1039.34 577.142 1042.14 581.797 1061.97 C 580.191 1062.61 578.918 1062.98 577.165 1063.05 C 565.298 1063.54 508.899 1011.45 498.005 1000.34 C 488.301 990.384 475.427 983.186 463.67 975.78 C 461.656 974.404 458.155 972.479 455.946 971.181 C 454.729 971.213 453.857 970.673 452.565 970.182 z" fill="rgb(138,28,43)" transform="translate(0,0)"></path>
<path d="M 836.912 1311.5 C 849.586 1309.44 859.961 1309.49 869.93 1318.47 C 896.783 1342.65 928.562 1368 952.2 1394.93 C 943.963 1393.2 934.034 1390.49 926.143 1389.17 C 900.769 1380.5 880.277 1373.8 858.362 1357.31 C 843.475 1346.12 818.468 1331.32 836.912 1311.5 z" fill="rgb(138,28,43)" transform="translate(0,0)"></path>
<path d="M 944.294 1410.01 C 946.587 1410.95 947.209 1410.56 949.487 1411.01 C 972.329 1415.61 993.076 1433.95 1010.33 1448.81 C 1002.22 1449.33 988.254 1450.26 980.506 1451.54 C 943.936 1455.94 905.91 1410.94 944.294 1410.01 z" fill="rgb(138,28,43)" transform="translate(0,0)"></path>
<path d="M 1000.86 1483.09 C 1003.78 1480.98 1014.16 1472.23 1018.12 1478.89 C 1032.75 1503.51 1052.93 1525.24 1073.67 1544.89 C 1064.34 1542.22 1059.57 1539.18 1051.14 1536.23 C 1035.86 1523.56 1013.9 1508.51 1001.55 1491.75 C 1000.22 1489.94 1000.71 1485.19 1000.86 1483.09 z" fill="rgb(138,28,43)" transform="translate(0,0)"></path>
<path d="M 1098.16 1582.14 C 1101.43 1580.75 1103.26 1581.23 1106.66 1582.58 C 1113.99 1585.52 1116.43 1596.13 1120.03 1602.49 C 1123.35 1608.36 1126.42 1613.64 1129.8 1619.26 C 1131.81 1621.22 1133.47 1622.58 1133.59 1625.26 C 1130.56 1623.95 1129.11 1621.57 1126.93 1618.95 C 1115.01 1605.64 1104.73 1599.08 1098.16 1582.14 z" fill="rgb(138,28,43)" transform="translate(0,0)"></path>
<path d="M 1028.16 506.839 L 1029.02 505.789 C 1049.19 480.646 1073.68 352.455 1079.55 316.427 C 1081.62 303.469 1083.59 290.496 1085.46 277.507 C 1086.66 269.156 1087.18 250.421 1097.86 248.203 C 1107.31 253.393 1100.54 270.217 1099.84 278.959 C 1096.83 316.474 1090.35 354.359 1090.39 392.001 C 1090.4 399.584 1094.8 410.169 1097.58 417.139 C 1108.33 442.186 1140.19 467.539 1168.49 458.862 C 1186.89 453.221 1205.18 438.756 1224.7 444.108 C 1231.46 453.13 1217.89 469.781 1214.33 479.116 C 1209.71 491.211 1193.44 524.272 1202.5 535.623 C 1213.29 549.144 1236.74 559.29 1252.59 564.358 C 1262.48 557.637 1267.94 547.76 1275.88 539.485 C 1285.87 529.08 1317.13 479.214 1331.71 505.485 C 1335.11 511.637 1336.83 518.575 1336.7 525.603 C 1336.53 537.413 1326.77 564.875 1341.8 567.671 C 1364.69 571.928 1396.08 554.73 1418.3 550.562 C 1428.99 548.657 1439.94 548.662 1450.63 550.578 C 1457.87 551.812 1466.88 555.093 1470.19 561.93 C 1476.53 575.044 1478.2 610.562 1474.13 623.769 C 1469.52 638.738 1448.23 659.199 1437.07 669.602 C 1442.31 683.755 1454.24 700.674 1461.79 715.227 C 1470.41 711.336 1476.32 707.271 1484.2 703.348 C 1497.48 724.227 1508.03 742.823 1528.98 757.44 C 1540.74 765.651 1544.97 771.231 1560.18 768.742 C 1549.96 781.558 1522.26 816.856 1541.69 833.64 C 1553.51 843.849 1576.79 832.746 1590.23 838.208 C 1597.92 840.996 1600.77 852.739 1609.88 850.786 C 1616.4 849.878 1625.58 845.332 1631.77 849.268 C 1636.27 852.125 1638.41 858.576 1633.82 862.356 C 1609.92 882.017 1600.21 889.58 1600.17 923.006 C 1600.17 929.47 1600.28 935.933 1600.48 942.393 C 1579.3 955.206 1536.19 982.913 1552.85 1017.6 C 1556.21 1024.6 1565.72 1028.6 1572.79 1031.41 C 1585.43 1028.25 1591.02 1029.19 1604.36 1024.33 C 1614.54 1020.63 1630.77 1009.16 1638.48 1008.76 L 1640.1 1009.85 C 1640.22 1017.39 1630.79 1029.16 1634.8 1036.14 C 1646.89 1045.63 1687.24 1037.6 1689.16 1045.71 C 1685.15 1049.22 1660.87 1053.35 1653.89 1054.63 C 1619.93 1060.87 1582.83 1086.6 1580.21 1124.28 C 1579.99 1127.45 1579.94 1130.63 1580.07 1133.8 C 1584.13 1140.64 1585.17 1142.11 1591.56 1146.66 C 1579.79 1163.35 1573.83 1174.92 1576.97 1196.57 C 1580.72 1220.55 1601.71 1242.99 1621.33 1255.81 C 1653.94 1276.88 1689.61 1294.57 1726.89 1305.59 C 1744.27 1310.73 1762.27 1313.45 1779 1320.16 C 1791.95 1325.15 1793.86 1354.79 1777.16 1354.12 C 1754.08 1353.18 1729.28 1339.63 1707.67 1332.03 C 1673.44 1320 1638.41 1309.81 1603.18 1301.09 C 1588.79 1297.54 1572.69 1296.27 1558.65 1292.46 C 1556.04 1284.59 1552.68 1267.38 1556.62 1259.9 C 1563.48 1246.89 1579.04 1257.95 1589.55 1254.3 C 1592.3 1251.46 1591.54 1253.06 1592.34 1249.56 C 1588.76 1244.33 1584.35 1241.27 1579.93 1236.93 C 1545.34 1203.05 1515.2 1164.21 1484.52 1126.86 C 1482.88 1124.88 1470.43 1122.07 1465.79 1118.62 L 1454.08 1113.64 C 1442.59 1103.81 1432.29 1090.96 1420.81 1080.61 C 1402.95 1058.69 1382.98 1037.86 1364.23 1016.69 C 1345.54 995.6 1340.33 983.103 1312.19 974.288 C 1308.19 963.487 1290.48 940.717 1282.81 931.178 C 1241.36 931.354 1203.89 908.878 1181.33 873.619 C 1175.97 865.238 1175.85 854.379 1186.39 849.967 C 1179.48 839.132 1171.55 819.474 1167.27 807.423 C 1145.77 816.928 1121.47 809.471 1102.95 796.819 C 1068.65 773.378 1054.92 739.931 1047.56 700.219 C 1041.26 698.733 1021.68 690.493 1018.24 685.46 C 1009.8 680.506 1005.8 676.686 998.703 671.807 C 983.016 661.018 923.237 582.735 922.156 569.245 C 916.873 564.54 908.862 556.935 904.804 551.281 L 905.132 549.416 L 906.226 549.888 C 933.538 561.441 956.673 554.018 982.913 543.329 C 983.776 541.378 979.366 518.909 978.677 516.783 C 994.865 502.647 1008.02 501.685 1028.16 506.839 z" fill="rgb(94,16,24)" transform="translate(0,0)"></path>
<path d="M 982.913 543.329 C 987.567 546.894 991.093 561.192 994.491 567.16 C 1016.27 605.42 1041.34 593.193 1075.2 587.422 C 1072.91 598.381 1070.76 609.367 1068.74 620.378 C 1087.42 618.927 1108.36 613.734 1127.35 611.531 C 1125.17 622.013 1123.08 630.912 1122.45 641.686 L 1206.76 658.96 C 1219.25 653.677 1231.68 648.248 1244.04 642.675 C 1249.99 639.96 1261.58 634.139 1267.19 632.277 C 1263.45 645.002 1259.45 659.682 1255.04 671.998 C 1264.49 692.678 1277.42 719.417 1285.57 740.242 C 1300.38 729.155 1313.09 716.26 1327.12 705.939 C 1318.75 732.506 1314.06 754.888 1335.89 775.873 C 1339.79 779.623 1342.91 784.784 1348.69 786.076 C 1359.54 788.639 1371.43 788.409 1382.57 788.742 C 1391.14 799.921 1396.11 809.005 1403.71 819.838 C 1433.31 820.891 1463.11 824.606 1492.69 825.36 C 1456.98 837.539 1424.94 855.276 1404.61 888.606 C 1414.15 901.293 1433.52 928.596 1443.66 939.158 C 1462.57 944.29 1485.52 948.544 1503.26 953.838 C 1492.73 960.379 1448.26 989.146 1440.48 996.768 C 1443.93 1048.47 1458.54 1029.83 1485.1 1058.46 C 1485.18 1081.6 1490.74 1107.98 1465.79 1118.62 L 1454.08 1113.64 C 1442.59 1103.81 1432.29 1090.96 1420.81 1080.61 C 1402.95 1058.69 1382.98 1037.86 1364.23 1016.69 C 1345.54 995.6 1340.33 983.103 1312.19 974.288 C 1308.19 963.487 1290.48 940.717 1282.81 931.178 C 1241.36 931.354 1203.89 908.878 1181.33 873.619 C 1175.97 865.238 1175.85 854.379 1186.39 849.967 C 1179.48 839.132 1171.55 819.474 1167.27 807.423 C 1145.77 816.928 1121.47 809.471 1102.95 796.819 C 1068.65 773.378 1054.92 739.931 1047.56 700.219 C 1041.26 698.733 1021.68 690.493 1018.24 685.46 C 1009.8 680.506 1005.8 676.686 998.703 671.807 C 983.016 661.018 923.237 582.735 922.156 569.245 C 916.873 564.54 908.862 556.935 904.804 551.281 L 905.132 549.416 L 906.226 549.888 C 933.538 561.441 956.673 554.018 982.913 543.329 z" fill="rgb(58,10,14)" transform="translate(0,0)"></path>
<path d="M 1047.56 700.219 C 1045.42 689.62 1043.63 678.957 1042.17 668.244 C 1059.71 691.008 1079.92 712.202 1098.74 733.84 C 1113.13 750.378 1129.36 759.898 1147.83 770.96 C 1161.1 778.911 1178.71 789.882 1167.27 807.423 C 1145.77 816.928 1121.47 809.471 1102.95 796.819 C 1068.65 773.378 1054.92 739.931 1047.56 700.219 z" fill="rgb(138,28,43)" transform="translate(0,0)"></path>
<path d="M 1186.39 849.967 C 1222.63 851.47 1248.74 885.711 1275.84 906.582 C 1281.94 911.28 1294.43 922.004 1299.63 927.563 L 1300.75 928.777 C 1294.91 929.729 1288.68 930.959 1282.81 931.178 C 1241.36 931.354 1203.89 908.878 1181.33 873.619 C 1175.97 865.238 1175.85 854.379 1186.39 849.967 z" fill="rgb(138,28,43)" transform="translate(0,0)"></path>
<path d="M 922.156 569.245 C 949.306 588.64 971.769 611.483 994.782 635.526 C 1008.39 649.742 1030.93 663.947 1018.24 685.46 C 1009.8 680.506 1005.8 676.686 998.703 671.807 C 983.016 661.018 923.237 582.735 922.156 569.245 z" fill="rgb(138,28,43)" transform="translate(0,0)"></path>
<path d="M 783.909 413.441 C 786.21 410.826 786.232 410.345 789.588 409.295 C 797.173 409.702 824.282 434.192 830.56 440.362 C 853.212 462.623 947.817 542.357 978.677 516.783 C 979.366 518.909 983.776 541.378 982.913 543.329 C 956.673 554.018 933.538 561.441 906.226 549.888 L 905.132 549.416 L 904.804 551.281 C 908.862 556.935 916.873 564.54 922.156 569.245 C 923.237 582.735 983.016 661.018 998.703 671.807 C 1005.8 676.686 1009.8 680.506 1018.24 685.46 C 1021.68 690.493 1041.26 698.733 1047.56 700.219 C 1054.92 739.931 1068.65 773.378 1102.95 796.819 C 1121.47 809.471 1145.77 816.928 1167.27 807.423 C 1171.55 819.474 1179.48 839.132 1186.39 849.967 C 1175.85 854.379 1175.97 865.238 1181.33 873.619 C 1203.89 908.878 1241.36 931.354 1282.81 931.178 C 1290.48 940.717 1308.19 963.487 1312.19 974.288 C 1340.33 983.103 1345.54 995.6 1364.23 1016.69 C 1382.98 1037.86 1402.95 1058.69 1420.81 1080.61 C 1432.29 1090.96 1442.59 1103.81 1454.08 1113.64 C 1454.52 1115.11 1454.83 1116.07 1455.92 1117.23 C 1490.53 1153.87 1520.97 1194.71 1554.83 1231.93 C 1515.36 1210.83 1483.93 1189.18 1441.26 1171.49 C 1426.23 1163.54 1385.37 1145.22 1368.75 1143.6 C 1366.17 1143.34 1345.92 1147.1 1339.69 1147.4 L 1338.21 1147.47 C 1329.13 1135.1 1322.32 1112.67 1309.94 1101.79 C 1305.88 1098.84 1297.54 1098.75 1293.02 1099.66 C 1262.28 1105.86 1232.29 1121.05 1201.43 1126.71 L 1199.86 1126.99 C 1198.22 1114.86 1197.53 1085.55 1195.68 1077.24 C 1189.72 1050.37 1176.78 1013.25 1167.26 987.568 C 1130.52 977.165 1108.26 991.629 1078.38 1007.52 C 1084.42 980.286 1083.87 955.747 1074.45 929.226 C 1051.28 920.921 1016.95 911.004 992.712 908.059 C 1017.13 860.234 1001.37 849.395 960.952 825.701 C 953.699 821.449 958.344 796.872 959.874 789.031 C 963.113 772.434 965.446 758.71 964.857 741.438 C 959.259 735.586 948.681 728.232 941.97 723.007 C 925.909 710.446 909.772 697.984 893.56 685.619 C 894.948 682.535 895.872 679.464 896.93 676.256 C 880.249 665.161 865.109 641.417 850.382 627.349 C 830.349 608.212 807.891 590.681 787.856 571.468 C 781.378 565.255 763.737 552.2 762.151 544.075 C 769.125 548.85 782.128 555.934 789.906 550.986 C 835.043 522.271 797.458 445.279 783.909 413.441 z" fill="url(#Gradient1)" transform="translate(0,0)"></path>
<path d="M 783.909 413.441 C 786.21 410.826 786.232 410.345 789.588 409.295 C 797.173 409.702 824.282 434.192 830.56 440.362 C 853.212 462.623 947.817 542.357 978.677 516.783 C 979.366 518.909 983.776 541.378 982.913 543.329 C 956.673 554.018 933.538 561.441 906.226 549.888 L 905.132 549.416 C 896.967 543.119 873.38 528.115 867.491 520.747 C 859.608 515.758 851.842 510.584 844.201 505.232 L 843.032 508.779 C 867.641 557.32 900.934 619.715 896.93 676.256 C 880.249 665.161 865.109 641.417 850.382 627.349 C 830.349 608.212 807.891 590.681 787.856 571.468 C 781.378 565.255 763.737 552.2 762.151 544.075 C 769.125 548.85 782.128 555.934 789.906 550.986 C 835.043 522.271 797.458 445.279 783.909 413.441 z" fill="rgb(138,28,43)" transform="translate(0,0)"></path>
<path d="M 783.909 413.441 C 786.21 410.826 786.232 410.345 789.588 409.295 C 797.173 409.702 824.282 434.192 830.56 440.362 C 853.212 462.623 947.817 542.357 978.677 516.783 C 979.366 518.909 983.776 541.378 982.913 543.329 C 956.673 554.018 933.538 561.441 906.226 549.888 L 905.132 549.416 C 896.967 543.119 873.38 528.115 867.491 520.747 C 866.909 517.581 862.27 512.935 860.395 509.741 C 844.18 482.114 824.475 457.949 804.104 433.395 C 798.918 427.143 794.843 419.026 789.118 413.333 C 787.948 412.169 785.508 413.146 783.909 413.441 z" fill="rgb(122,22,32)" transform="translate(0,0)"></path>
<path d="M 843.032 508.779 C 842.019 507.006 840.796 505.234 840.274 503.278 C 840.087 502.577 840.157 501.487 841.019 501.735 C 842.298 502.103 843.664 504.315 844.201 505.232 L 843.032 508.779 z" fill="rgb(94,16,24)" transform="translate(0,0)"></path>
<path d="M 1420.81 1080.61 C 1420.04 1080.25 1419.1 1079.84 1418.42 1079.36 C 1389.55 1058.86 1359.81 1039.48 1331.96 1017.57 C 1327.6 1014.14 1323.26 1010.46 1319.24 1006.68 C 1313.75 1001.5 1308.49 996.171 1305.48 989.12 C 1303.64 984.824 1303.6 980.639 1306.39 976.692 C 1308.11 974.25 1309.64 974.536 1312.19 974.288 C 1340.33 983.103 1345.54 995.6 1364.23 1016.69 C 1382.98 1037.86 1402.95 1058.69 1420.81 1080.61 z" fill="rgb(138,28,43)" transform="translate(0,0)"></path>
<path d="M 540.701 730.468 C 551.299 735.791 569.763 732.458 580.599 729.457 C 608.277 721.79 605.497 698.702 602.657 675.643 C 599.888 653.164 615.813 654.625 633.219 658.462 C 662.965 665.021 691.638 679.648 719.463 691.654 C 746.018 704.019 789.875 719.659 805.436 745.304 C 789.732 743.348 738.177 733.476 721.443 740.427 C 714.118 743.469 726.5 766.104 728.479 772.148 C 741.624 782.205 754.921 792.062 768.365 801.717 C 778.394 808.987 816.573 833.506 810.667 847.797 C 807.801 848.832 803.411 850.018 800.392 849.975 C 797.027 849.935 793.756 848.858 791.025 846.891 C 785.979 843.302 763.861 821.07 758.006 815.23 C 735.562 792.845 710.824 770.322 689.146 747.374 L 687.796 746.007 C 670.262 729.686 652.469 714.724 634.289 699.126 L 626.631 692.488 C 639.304 721.083 655.907 750.437 668.7 779.296 C 673.698 790.569 682.165 804.28 685.265 816.03 C 683.77 820.046 683.69 821.51 680.385 823.827 C 669.7 826.978 655.171 818.955 642.853 816.036 C 648.547 823.978 666.474 848.379 669.536 856.116 C 660.732 854.052 640.254 843.566 630.018 840.021 C 605.347 831.478 580.592 823.113 555.705 815.229 C 556.08 784.091 522.534 770.963 500.027 757.74 C 469.174 739.613 439.857 726.745 405.407 717.637 C 393.718 714.547 374.086 704.483 366.977 694.585 C 364.181 690.692 363.875 681.929 369.814 680.379 C 386.627 676.03 407.794 689.395 422.067 694.186 C 451.973 704.223 510.655 739.484 540.701 730.468 z" fill="rgb(138,28,43)" transform="translate(0,0)"></path>
<path d="M 1454.08 1113.64 L 1465.79 1118.62 C 1470.43 1122.07 1482.88 1124.88 1484.52 1126.86 C 1515.2 1164.21 1545.34 1203.05 1579.93 1236.93 C 1584.35 1241.27 1588.76 1244.33 1592.34 1249.56 C 1591.54 1253.06 1592.3 1251.46 1589.55 1254.3 C 1579.04 1257.95 1563.48 1246.89 1556.62 1259.9 C 1552.68 1267.38 1556.04 1284.59 1558.65 1292.46 C 1542.17 1290.24 1523.03 1287.2 1506.65 1286.37 C 1502.7 1286.05 1497.11 1283.5 1492.43 1282.21 C 1483.53 1279.8 1474.59 1277.57 1465.61 1275.51 C 1436.78 1268.91 1408.01 1262.07 1379.3 1254.99 C 1362.49 1250.99 1342.27 1247.19 1326.15 1241.47 C 1310.01 1235.75 1293.35 1228.73 1277.33 1222.46 C 1303.72 1220.76 1338.6 1218.47 1364.71 1219.12 C 1370.28 1224.79 1378.1 1240.22 1386.38 1239.51 C 1398.49 1238.46 1413.89 1220.61 1421.72 1212.5 C 1413.81 1199.88 1403.36 1191.52 1394.47 1177.57 C 1406.95 1175.73 1430.68 1175.21 1441.26 1171.49 C 1483.93 1189.18 1515.36 1210.83 1554.83 1231.93 C 1520.97 1194.71 1490.53 1153.87 1455.92 1117.23 C 1454.83 1116.07 1454.52 1115.11 1454.08 1113.64 z" fill="rgb(138,28,43)" transform="translate(0,0)"></path>
<path d="M 922.403 942.134 C 923.122 935.948 922.793 930.518 927.562 926.622 C 929.661 926.022 932.457 925.425 934.221 926.757 C 950.643 939.159 972.239 963.256 986.544 977.769 C 998.475 989.847 1010.34 1001.99 1022.14 1014.19 C 1029.6 1021.94 1042.79 1036.25 1050.93 1042.77 C 1064.21 1053.41 1080.2 1061.6 1093.92 1072.8 L 1085.36 1076.8 C 1079.77 1079.25 1069.43 1079.93 1063.06 1079.51 C 1014.99 1076.33 981.778 1044.38 950.41 1011.54 C 933.994 994.358 920.934 966.165 922.403 942.134 z" fill="rgb(138,28,43)" transform="translate(0,0)"></path>
<path d="M 824.601 852.214 C 823.475 842.971 823.006 838.96 822.926 829.774 C 836.099 841.985 848.283 858.674 860.858 872.052 C 870.207 881.998 887.158 900.391 893.195 912.248 C 892.553 913.314 890.29 917.776 888.969 918.08 C 860.021 924.744 835.191 896.759 829.115 870.982 C 828.439 867.993 827.808 864.994 827.222 861.985 C 826.559 858.454 826.171 855.446 824.601 852.214 z" fill="rgb(138,28,43)" transform="translate(0,0)"></path>
<path d="M 1654.76 538.877 C 1657.55 541.645 1660.28 549.76 1662.95 552.504 C 1668.22 557.918 1673.63 562.294 1679.02 567.848 C 1679.58 570.615 1680.17 573.375 1680.79 576.126 C 1685.46 595.93 1703.31 586.427 1717.23 582.251 C 1727.73 584.993 1740.17 591.887 1749.61 597.188 C 1784.8 616.96 1804.05 634.101 1846 634.107 C 1825.53 657.997 1779.74 714.666 1750.58 732.237 C 1747.17 734.292 1733.19 726.432 1728.38 723.979 C 1708.61 714.078 1672.28 695.103 1652.66 687.34 C 1630.29 702.263 1607.02 710.057 1580.53 697.234 C 1569.04 691.673 1541.23 674.32 1539.88 660.609 C 1544.29 654.663 1560.19 645.132 1567.35 638.097 C 1580.84 624.841 1585.53 612.198 1595.54 597.444 C 1599.52 591.581 1613.77 579.839 1619.79 573.909 C 1631.13 562.749 1642.8 548.974 1654.76 538.877 z" fill="rgb(94,16,24)" transform="translate(0,0)"></path>
<path d="M 799.93 1657.3 C 803.021 1657.49 808.925 1658.75 811.062 1662.53 C 821.139 1680.33 842.168 1718.46 846.105 1736.39 C 848.714 1748.26 804.711 1737.62 800.003 1745.13 C 788.948 1762.77 813.938 1813.99 811.388 1830.39 C 805.677 1839.79 783.096 1850.34 773.067 1855.84 C 756.535 1864.88 740.121 1874.14 723.83 1883.6 C 718.147 1886.98 696.778 1901.07 691.734 1899.55 C 685.721 1890.37 694.456 1856.91 695.383 1844.92 C 696.33 1832.66 699.37 1820.23 699.049 1807.36 L 699.003 1805.93 L 689.461 1797.86 C 691.399 1787.86 696.285 1777.55 697.031 1767.72 C 697.69 1759.04 696.428 1747.63 696.181 1738.95 C 695.715 1722.55 713.212 1699.3 722.349 1686.12 C 727.979 1679.13 739.436 1659.5 749.819 1661.48 C 768.607 1665.05 781.751 1660.26 799.93 1657.3 z" fill="rgb(94,16,24)" transform="translate(0,0)"></path>
<path d="M 1367.62 1506.08 C 1377.75 1506.28 1385.62 1507.47 1394.87 1511.75 C 1403.21 1523.66 1408.79 1531.01 1418.27 1541.78 C 1424.27 1547.41 1431.25 1553.67 1436.95 1559.47 C 1470.81 1595.59 1499.84 1635.14 1533.36 1669.16 C 1558.46 1694.16 1583.73 1719 1609.14 1743.69 C 1627.23 1761.04 1643.75 1774.11 1660 1795.05 C 1674.04 1813.13 1676.58 1838.66 1661.02 1857.57 C 1656.56 1863 1642.86 1865.89 1636.26 1865.39 C 1624.35 1864.86 1613.74 1857.96 1606.53 1848.59 C 1581.86 1816.09 1560.98 1780.78 1540.5 1745.54 C 1522.04 1713.77 1498.68 1685.12 1477.54 1655.46 C 1455.6 1624.66 1446.21 1610.57 1415.63 1588.04 C 1393.45 1573.79 1366.83 1557.16 1341.44 1549.3 C 1342.52 1546.32 1345.2 1541.99 1346.86 1538.84 C 1354.05 1525.23 1355.91 1516.22 1367.62 1506.08 z" fill="rgb(122,22,32)" transform="translate(0,0)"></path>
<path d="M 1360.82 254.079 C 1380.77 250.162 1381.2 267.533 1389.42 280.852 C 1399.66 297.431 1438.06 320.704 1428.6 342.447 C 1425.89 348.669 1397.52 348.047 1390.13 348.259 C 1387.16 350.082 1384.32 352.128 1381.65 354.379 C 1375.63 359.539 1368.55 366.485 1362.96 372.191 C 1336.73 399.006 1303.42 417.335 1300.58 457.905 C 1300.45 460.515 1300.04 470.374 1297.17 471.294 C 1251.03 486.091 1249.63 387.33 1245.29 360.539 C 1265.38 338.042 1269.42 323.334 1281.03 295.958 C 1289.98 274.869 1313.25 271.447 1332.02 265.219 C 1341.18 262.179 1351.2 257.506 1360.82 254.079 z" fill="rgb(94,16,24)" transform="translate(0,0)"></path>
<path d="M 673.672 1592.94 C 677.676 1595.76 692.692 1618.88 698.294 1624.14 C 702.521 1628.12 708.898 1636.3 714.374 1640.15 C 719.312 1643.61 722.389 1644.26 726.684 1648.52 C 727.301 1651.12 726.729 1653.36 725.084 1655.59 C 715.474 1668.52 703.935 1679.67 694.67 1693 C 689.509 1699.93 687.794 1709.32 685.94 1717.83 C 679.347 1748.11 668.424 1777.26 661.094 1807.32 C 658.074 1819.71 659.275 1832.88 654.625 1845.24 C 647.474 1847.43 641.062 1823.72 639.441 1818.75 C 633.069 1799.48 620.989 1761.93 608.794 1747.02 C 591.055 1725.32 570.478 1719.38 557.01 1691.02 C 563.035 1677.69 570.81 1666.27 578.501 1652.65 C 583.478 1643.84 593.827 1619 600.973 1611.5 C 603.618 1608.72 619.819 1613.71 626.025 1612.18 C 642.901 1608.01 657.722 1599.69 673.672 1592.94 z" fill="rgb(94,16,24)" transform="translate(0,0)"></path>
<path d="M 1649.21 408.385 L 1653.37 408.605 C 1658.52 411.917 1661.27 421.37 1666.04 422.561 C 1704.22 432.092 1798.36 436.322 1709.17 479.725 C 1688.25 489.904 1660.77 503.23 1641.99 518.681 C 1629.71 528.788 1620.22 545.405 1607.27 554.737 C 1605.33 556.142 1600.92 553.471 1599.13 552.619 C 1592.9 558.041 1572.22 591.978 1562.73 580.099 C 1545.68 558.786 1517.71 485.704 1530.48 458.718 C 1534.9 449.369 1572 436.862 1584.24 431.637 C 1604.47 422.997 1626.56 410.536 1649.21 408.385 z" fill="rgb(58,10,14)" transform="translate(0,0)"></path>
<path d="M 458.787 1429.52 C 463.487 1433.13 471.248 1445.14 480.853 1452.79 C 495.694 1455.25 538.356 1453.49 546.92 1463.31 C 547.678 1466.56 547.878 1467.79 547.261 1471.16 C 547.082 1472.13 546.851 1473.1 546.571 1474.04 C 539.015 1499.54 489.874 1540.29 476.212 1567.26 C 469.303 1580.9 461.95 1609.2 452.322 1618.94 C 448.01 1623.31 436.119 1619.96 430.147 1618.67 C 407.998 1613.38 379.312 1606.02 358.692 1596.96 C 311.872 1576.37 364.446 1523.32 387.793 1508.35 C 390.947 1509.36 399.137 1512.14 402.138 1510.79 C 431.565 1497.54 442.729 1453.61 458.787 1429.52 z" fill="rgb(94,16,24)" transform="translate(0,0)"></path>
<path d="M 1656.95 714.978 C 1666.87 715.457 1687.12 733.371 1697.94 737.707 C 1726.75 749.252 1756.84 750.084 1783.68 766.85 C 1776.68 768.011 1772.11 768.068 1765.6 771.245 C 1741.92 782.793 1743.37 819.123 1735.62 841.529 C 1733.19 848.526 1730.77 857.519 1722.99 861.686 C 1719.17 863.733 1712.15 852.953 1705.33 850.732 C 1694.46 847.197 1689 850.327 1679.25 854.738 C 1661.26 861.856 1648.31 836.173 1637.37 825.261 C 1628.25 816.159 1622.69 810.266 1612.06 802.618 C 1597.82 806.315 1583.22 820.911 1566.33 814.564 C 1547.42 807.454 1565.78 781.938 1572.18 771.951 C 1576.07 765.891 1586.14 747.07 1591.32 743.61 C 1604.63 734.704 1643.54 719.841 1656.95 714.978 z" fill="rgb(58,10,14)" transform="translate(0,0)"></path>
<path d="M 1345.47 494.348 C 1344.67 493.481 1342.45 491.048 1341.84 489.824 C 1334.71 475.442 1329.7 449.268 1333.31 433.542 C 1334.02 430.465 1337.5 425.475 1339.66 423.514 C 1350.13 413.991 1359.87 409.586 1370.9 399.57 C 1380.34 390.995 1387.63 375.112 1398.38 370.265 C 1409.74 365.149 1441.51 351.683 1454.3 354.938 C 1456.61 355.525 1457.95 358.458 1458.68 360.478 C 1465.16 378.272 1455.29 396.873 1446.86 412.23 C 1436.59 430.957 1441.57 428.258 1441.39 447.256 C 1441.36 449.929 1437.44 463.891 1436.39 467.185 C 1431.12 483.815 1434.72 497.504 1439.88 513.763 C 1446 517.241 1449.07 519.063 1455.66 521.567 L 1456.91 522.239 C 1459.4 522.709 1461.89 523.214 1464.37 523.751 C 1462.18 524.779 1459.98 525.782 1457.76 526.763 C 1441.55 529.79 1374.52 551.472 1361.89 545.809 C 1358.56 544.315 1356.05 541.095 1355.07 537.61 C 1352.77 529.498 1361.08 521.906 1364.71 515.385 C 1366.39 512.36 1367.6 508.545 1366.19 505.164 C 1363.15 497.902 1352.1 496.207 1345.47 494.348 z" fill="rgb(58,10,14)" transform="translate(0,0)"></path>
<path d="M 1456.91 522.239 C 1459.4 522.709 1461.89 523.214 1464.37 523.751 C 1462.18 524.779 1459.98 525.782 1457.76 526.763 L 1456.91 522.239 z" fill="rgb(94,16,24)" transform="translate(0,0)"></path>
<path d="M 399.174 1393.34 C 408.528 1392.06 432.383 1392.52 440.599 1396.2 C 456.068 1406.23 430.154 1433.83 423.642 1444.3 C 400.524 1481.49 362.568 1502.8 337.219 1538.16 C 332.225 1545.12 332.966 1550.22 329.927 1556.39 C 324.513 1567.39 304.009 1546.65 300.873 1543.73 C 281.898 1524 262.906 1491.02 252.852 1465.46 C 249.31 1456.45 285.646 1430.32 293.904 1429.05 C 301.491 1427.88 304.624 1436.04 309.67 1439.99 C 311.487 1441.41 313.926 1442.07 316.304 1441.26 C 346.079 1424.61 363.41 1398.81 399.174 1393.34 z" fill="rgb(94,16,24)" transform="translate(0,0)"></path>
<path d="M 322.107 1203.58 L 325.288 1204.43 C 329.324 1208.45 341.22 1226.76 345.02 1232.06 C 352.236 1242.14 375.007 1268.73 378.926 1278.78 C 382.481 1287.9 367.198 1339.67 362.728 1349.92 C 361.039 1353.79 357.973 1356.84 353.727 1358.05 C 342.123 1357 324.463 1330.44 315.882 1320.75 L 305.025 1326.88 C 288.032 1332.81 278.17 1315.91 259.051 1317.32 C 248.063 1318.14 235.29 1325.71 226.646 1321.78 C 225.749 1320.6 224.587 1319.56 224.63 1318.21 C 225.183 1300.63 235.2 1266.73 244.41 1252.53 C 254.832 1236.47 279.881 1217.69 297.755 1211.67 C 301.548 1210.39 307.484 1215.86 313.759 1214.56 C 317.556 1212.21 319.689 1207.58 322.107 1203.58 z" fill="rgb(58,10,14)" transform="translate(0,0)"></path>
<path d="M 207.514 299.233 C 215.938 298.596 222.28 299.811 229.721 303.86 C 243.893 311.572 256.472 325.549 267.898 336.855 C 281.023 349.842 400.041 476.49 401.239 484.734 C 401.573 487.033 400.566 490.07 399.301 491.953 C 397.741 494.276 395.374 495.8 392.643 496.327 C 388.589 497.108 385.747 495.912 382.495 493.624 C 369.968 483.587 356.096 475.289 342.913 466.147 C 329.554 456.883 316.702 446.821 303.056 437.986 C 272.845 418.426 195.135 379.277 184.515 344.524 C 181.576 334.908 181.68 323.274 186.591 314.293 C 191.411 305.478 198.369 302.019 207.514 299.233 z" fill="rgb(122,22,32)" transform="translate(0,0)"></path>
<path d="M 1256.72 290.007 C 1261.19 289.561 1261.98 289.489 1265.05 292.844 C 1265.5 294.784 1265.95 295.849 1265.15 297.788 C 1262.07 305.233 1250.42 315.678 1245.44 323.406 C 1230.88 345.95 1235.56 370.123 1233.52 395.868 C 1233.03 401.983 1232.65 408.353 1230.38 414.122 C 1228.98 417.67 1226.69 421.04 1222.86 422.2 C 1214.56 424.715 1168.47 396.284 1157.34 390.857 C 1142.42 384.522 1133.48 387.522 1117.87 389.679 C 1117.49 378.709 1123.22 304.786 1135.26 304.032 C 1164.34 302.213 1198.35 308.141 1228.14 304.026 C 1236.08 302.928 1247.75 293.41 1256.72 290.007 z" fill="rgb(58,10,14)" transform="translate(0,0)"></path>
<path d="M 1710.43 192.251 C 1723.15 191.339 1726.13 192.24 1736.73 198.681 C 1756.95 233.215 1723.74 249.157 1698.92 265.651 C 1682.37 276.427 1665.93 287.365 1649.59 298.464 C 1615.58 321.682 1583.64 346.619 1550.62 371.142 C 1541.64 376.596 1536.11 379.157 1526.41 383.43 C 1545.42 364.273 1562.15 344.261 1579.8 323.904 L 1632.85 263.281 C 1652.52 240.649 1682.02 201.3 1710.43 192.251 z" fill="rgb(122,22,32)" transform="translate(0,0)"></path>
<path d="M 947.484 28.0544 C 967.229 26.9717 975.089 50.7052 976.168 66.957 C 980.522 132.558 975.895 198.4 981.072 264.255 C 981.363 267.951 980.004 274.209 977.638 277.176 L 976.009 276.934 C 972.922 273.116 972.223 269.01 970.819 264.219 C 965.595 244.693 961.435 225.183 956.013 205.517 C 948.314 177.92 941.023 150.211 934.142 122.399 C 927.193 93.693 910.588 42.1418 947.484 28.0544 z" fill="rgb(122,22,32)" transform="translate(0,0)"></path>
<path d="M 1999.04 990.455 C 2008.18 989.946 2013.43 989.64 2020.92 996.003 C 2042.68 1014.47 2021.13 1031.91 2000.74 1034.26 C 1977.78 1036.12 1954.62 1033.96 1931.45 1033.98 C 1866.02 1034.05 1802.02 1037.19 1736.78 1040.61 C 1728.22 1041.27 1710.17 1043.06 1704.33 1035.02 L 1705.2 1033.06 C 1722.42 1021.82 1798.39 1022.34 1822.34 1019.3 C 1844.17 1016.52 1868.81 1013.31 1890.94 1010.12 C 1928.07 1004.76 1961.72 994.681 1999.04 990.455 z" fill="rgb(122,22,32)" transform="translate(0,0)"></path>
<path d="M 389.222 1006.33 C 394.057 1005.54 394.648 1005.2 397.973 1008.89 C 401.343 1026.88 363.52 1029.65 351.934 1029.73 C 304.139 1030.07 188.761 1095.08 148.212 1079.37 C 140.482 1074.92 138.187 1073 133.139 1065.69 C 135.384 1051.88 144.357 1042.35 158.072 1038.84 C 200.166 1028.1 244.39 1026.28 287.394 1020.93 C 321.401 1016.7 355.305 1011.29 389.222 1006.33 z" fill="rgb(122,22,32)" transform="translate(0,0)"></path>
<path d="M 482.748 1660.82 C 485.038 1661.18 483.994 1660.7 485.813 1662.4 C 484.803 1669.35 454.639 1690.48 447.503 1696.04 C 423.499 1714.53 399.86 1733.48 376.599 1752.9 C 368.14 1760.09 359.797 1768.29 351.386 1775.22 C 328.032 1794.45 299.631 1839.74 265.15 1822.67 C 248.852 1810.43 255.726 1796.3 269.233 1785.34 C 292.355 1766.58 319.178 1753.46 344.357 1737.9 C 389.356 1710.1 435.602 1684.78 482.748 1660.82 z" fill="rgb(122,22,32)" transform="translate(0,0)"></path>
<path d="M 558.2 1492.65 C 573.451 1497.6 599.428 1522.65 612.024 1534.08 C 618.117 1539.61 623.061 1547.09 622.968 1555.75 C 619.26 1562.85 611.333 1571.47 606.008 1577.99 C 595.807 1590.47 591.316 1610.5 572.245 1606.92 C 564.545 1603.63 500.286 1568.83 505.61 1559.44 C 510.415 1550.96 537.976 1535.24 544.637 1524.45 C 552.876 1511.11 545.596 1501.4 558.2 1492.65 z" fill="rgb(58,10,14)" transform="translate(0,0)"></path>
<path d="M 261.083 1343.95 C 269.82 1345.5 279.254 1352.72 288.175 1356.5 C 308.694 1365.19 337.159 1378.09 359.683 1374.97 C 363.855 1374.39 368.423 1368.72 374.43 1367.05 C 377.045 1368.52 375.865 1367.75 377.691 1370.78 C 379.154 1385.05 339.513 1403.77 328.093 1407.08 C 318.208 1409.94 304.332 1411.68 293.977 1413.22 C 267.685 1414.82 234.979 1442.61 213.307 1457.45 C 218.139 1443.56 222.623 1430.34 226.848 1416.24 C 234.395 1391.08 234.874 1357.58 261.083 1343.95 z" fill="rgb(94,16,24)" transform="translate(0,0)"></path>
<path d="M 597.811 1786.2 C 600.367 1786.64 602.608 1786.71 604.24 1788.97 C 611.112 1798.49 634.299 1890.42 632.182 1902.52 C 631.646 1905.58 630.775 1907.06 628.217 1908.76 C 618.089 1908.77 593.978 1888.89 584.411 1882.05 C 575.909 1875.96 513.713 1832.91 521.779 1816.57 C 525.599 1808.84 563.99 1804.11 573.593 1799.05 C 578.391 1796.52 592.254 1787.95 597.811 1786.2 z" fill="rgb(58,10,14)" transform="translate(0,0)"></path>
<path d="M 670.979 164.095 C 678.663 164.145 683.892 165.901 689.776 171.011 C 696.864 177.169 701.702 185.543 705.7 193.911 C 711.656 206.378 777.641 373.699 777.506 378.538 C 777.424 381.463 776.719 382.005 774.689 383.752 C 770.64 383.675 772.427 384.269 769.137 381.895 C 749.808 351.193 733.718 323.398 713.193 292.405 L 685.265 250.465 C 670.971 229.391 651.222 203.859 659.746 175.386 C 661.611 169.154 665.236 166.646 670.979 164.095 z" fill="rgb(122,22,32)" transform="translate(0,0)"></path>
<path d="M 475.73 245.226 C 484.573 244.253 496.458 244.475 502.013 251.268 C 519.196 272.281 633.369 444.021 633.271 456.422 C 630.061 457.237 630.444 456.597 626.549 454.862 C 609.766 440.572 595.513 419.314 580.484 402.747 L 505.866 321.103 C 490.856 304.53 443.95 265.1 475.73 245.226 z" fill="rgb(122,22,32)" transform="translate(0,0)"></path>
<path d="M 1356.89 217.328 C 1371.29 217.321 1389.39 221.304 1401.98 222.793 C 1442.19 227.551 1474.25 199.817 1463.49 260.58 C 1460.31 278.515 1493.11 302.168 1506.44 315.885 C 1502.1 321.962 1501.8 322.806 1496 327.647 C 1468.81 344.323 1459.63 323.879 1445.32 303.968 C 1431.83 285.208 1416.11 272.216 1399.53 257.089 C 1390.56 248.901 1355.14 225.717 1351.28 219.906 C 1352.83 217.846 1353.75 218.222 1356.89 217.328 z" fill="rgb(58,10,14)" transform="translate(0,0)"></path>
<path d="M 514.517 1702.73 C 516.192 1702.68 518.997 1702.62 520.509 1703.24 C 533.364 1708.49 577.887 1739.7 583.55 1749.79 C 584.606 1763.73 531.596 1787.27 519.735 1791.77 C 500.011 1798.12 483.023 1802.61 463.016 1807.75 C 470.251 1785.08 482.414 1760.86 489.795 1737.82 C 494.332 1723.66 501.682 1710.8 514.517 1702.73 z" fill="rgb(58,10,14)" transform="translate(0,0)"></path>
<path d="M 177.863 492.167 C 211.023 489.33 230.714 516.191 255.207 534.402 C 282.966 555.026 311.378 574.757 340.4 593.562 C 346.254 597.338 367.016 608.267 368.619 612.339 L 366.975 613.158 C 361.189 612.541 357.653 611.001 352.259 609.041 C 312.507 591.268 274.529 576.347 233.743 560.967 C 216.291 553.755 197.963 549.608 181.015 541.198 C 154.469 528.026 148.841 506.787 177.863 492.167 z" fill="rgb(122,22,32)" transform="translate(0,0)"></path>
<path d="M 1612.25 1441.99 C 1626.23 1445.91 1654.17 1465.6 1671.49 1473.12 C 1708.8 1489.64 1746.17 1506.13 1783.31 1523.02 C 1802.38 1531.69 1810.34 1545.65 1799.83 1564.95 C 1785.63 1576.94 1771.93 1569.62 1757.83 1561.79 C 1735.82 1549.56 1718.75 1530.2 1698.99 1515.06 C 1672.4 1494.7 1645.64 1474.48 1619.73 1453.25 C 1615.82 1450.03 1613.6 1446.8 1612.25 1441.99 z" fill="rgb(122,22,32)" transform="translate(0,0)"></path>
<path d="M 1167.79 219.611 C 1177.97 220.275 1184.64 224.176 1194.17 227.684 C 1214.3 235.094 1231.85 243.784 1253.48 245.838 C 1268.64 247.277 1269.01 240.101 1275.55 240.13 C 1277.07 241.677 1278.88 242.738 1278.22 245.237 C 1276.13 253.163 1262.27 266.776 1256.33 271.7 C 1252.1 275.013 1243.08 282.264 1238.07 283.998 C 1223.46 289.057 1204.46 288.364 1188.99 290.829 C 1184.35 291.568 1174.8 292.265 1171.54 288.9 C 1161.97 278.999 1157.97 255.096 1156.98 241.844 C 1156.25 232.204 1161.96 225.878 1167.79 219.611 z" fill="rgb(58,10,14)" transform="translate(0,0)"></path>
<path d="M 1122.75 1763.53 L 1124.26 1764.68 C 1125.93 1769.86 1131.13 1802.81 1131.58 1809.23 C 1133.78 1840.9 1169.54 1952.52 1133.97 1970.51 C 1117.04 1972.27 1107.4 1967.29 1106.65 1948.63 C 1106.06 1933.73 1108.25 1918.52 1109.74 1903.7 C 1112.12 1879.97 1115.36 1856.26 1117.29 1832.48 C 1119.18 1811.65 1117.04 1792.18 1118.21 1771.54 C 1118.4 1768.11 1120.51 1766 1122.75 1763.53 z" fill="rgb(122,22,32)" transform="translate(0,0)"></path>
<path d="M 865.35 298.936 C 887.782 296.475 908.025 312.501 910.777 334.899 C 913.528 357.297 897.766 377.747 875.405 380.788 C 860.681 382.791 846.018 376.717 837.023 364.888 C 828.028 353.06 826.093 337.307 831.957 323.653 C 837.822 310 850.579 300.557 865.35 298.936 z" fill="rgb(122,22,32)" transform="translate(0,0)"></path>
<path d="M 1493.57 614.677 L 1496.54 614.98 C 1502.99 619.389 1500.28 642.101 1505.82 648.3 C 1516.62 659.366 1535.23 692.112 1549.09 698.477 C 1578.15 711.824 1561.16 752.841 1537.19 741.61 C 1517.9 727.858 1506.14 707.557 1490.27 690.658 C 1463.66 687.347 1470.58 695.517 1470.41 667.319 C 1470.4 665.864 1466.74 654.436 1465.99 651.508 C 1471.67 640.209 1484.69 624.04 1493.57 614.677 z" fill="rgb(58,10,14)" transform="translate(0,0)"></path>
<path d="M 377.569 1140.59 C 382.748 1143.03 383.115 1145.25 387.237 1148.74 C 395.449 1155.48 406.708 1160.63 417.027 1162.92 C 423.016 1164.25 426.801 1164.27 424.346 1171.57 C 416.623 1194.55 408.453 1220.95 391.451 1238.73 C 389.46 1240.82 384.327 1239.26 382.215 1238.45 C 367.627 1224.75 357.024 1210.71 343.579 1194.76 C 332.366 1181.46 324.952 1156.67 351.997 1160.02 C 368.205 1162.03 363.175 1149.16 377.569 1140.59 z" fill="rgb(58,10,14)" transform="translate(0,0)"></path>
<path d="M 1763.7 494.341 C 1765.55 495.39 1765.09 510.221 1765.35 513.747 C 1767.64 544.404 1779.71 571.029 1791.18 598.961 C 1772.75 590.127 1753.44 576.856 1734.38 566.964 C 1720.27 559.468 1707.78 549.239 1693.27 542.468 C 1688.7 540.336 1684.3 537.853 1680.01 535.204 C 1680.8 528.233 1689.22 524.485 1694.82 521.031 C 1716.05 507.936 1739.13 498.809 1763.7 494.341 z" fill="rgb(58,10,14)" transform="translate(0,0)"></path>
<path d="M 360.157 881.257 C 350.319 883.337 302.536 881.606 291.474 881.583 C 246.765 881.698 202.165 879.168 157.698 876.327 C 113.443 873.5 145.018 842.439 160.708 843.949 C 181.739 845.972 209.488 852.274 231.246 855.919 C 258.196 860.522 285.173 864.959 312.177 869.231 C 329.291 871.939 349.397 874.616 366.078 878.041 C 366.818 878.074 372.503 878.397 369.009 880.894 C 368.478 881.274 361.282 881.257 360.157 881.257 z" fill="rgb(122,22,32)" transform="translate(0,0)"></path>
<path d="M 366.078 878.041 C 366.818 878.074 372.503 878.397 369.009 880.894 C 368.478 881.274 361.282 881.257 360.157 881.257 C 362.06 878.731 363.041 879.79 366.078 878.041 z" fill="rgb(138,28,43)" transform="translate(0,0)"></path>
<path d="M 1653.94 866.94 C 1669.5 867.574 1667.32 874.082 1673.18 886.984 C 1676.24 893.735 1686.89 913.53 1684.09 919.511 C 1679.33 929.702 1645.03 950.227 1635.53 955.905 C 1609.58 969.957 1611.17 954.198 1615.74 932.995 C 1620.35 911.625 1617.41 902.256 1633.74 886.78 C 1641.49 879.437 1643.44 873.369 1653.94 866.94 z" fill="rgb(58,10,14)" transform="translate(0,0)"></path>
<path d="M 305.485 1109.7 C 312.835 1109.96 314.227 1121.6 315.881 1128.02 C 328.606 1177.4 311.52 1202.51 259.373 1180.27 C 249.969 1175.32 235.225 1164.81 236.218 1152.5 C 237.739 1133.62 257.772 1147.87 269.461 1140.91 C 282.024 1133.42 291.086 1119.87 302.403 1111.86 L 305.485 1109.7 z" fill="rgb(58,10,14)" transform="translate(0,0)"></path>
<path d="M 1682.88 975.979 C 1711.05 962.029 1807.55 915.191 1834.05 924.084 C 1836.68 924.964 1839.28 926.416 1840.68 928.903 C 1843.35 933.645 1841.81 939.73 1840 944.486 C 1839.11 946.811 1837.93 949.044 1836.79 951.255 C 1816.93 963.112 1713.67 977.547 1686.21 979.129 L 1682.88 975.979 z" fill="rgb(122,22,32)" transform="translate(0,0)"></path>
<path d="M 306.986 1615.85 C 325.558 1612.22 343.613 1624.14 347.577 1642.64 C 351.541 1661.15 339.952 1679.41 321.524 1683.71 C 309.303 1686.56 296.494 1682.59 288.026 1673.33 C 279.558 1664.07 276.749 1650.96 280.68 1639.04 C 284.611 1627.12 294.67 1618.26 306.986 1615.85 z" fill="rgb(122,22,32)" transform="translate(0,0)"></path>
<path d="M 1480.27 408.945 C 1496.9 409.158 1490.51 420.872 1499.83 431.991 C 1504.37 437.408 1509.61 441.887 1513.95 447.544 L 1516.46 450.866 L 1515.62 452.239 C 1510.33 461.147 1505.12 463.996 1503.09 474.514 C 1501.04 485.145 1500.27 494.594 1489.74 499.649 L 1488.03 500.508 C 1481.74 502.34 1463.22 507.242 1459.54 501.036 C 1455.2 493.719 1458.85 463.501 1459.84 454.991 C 1460.62 448.296 1461.61 441.626 1462.8 434.99 C 1465.13 421.83 1468.11 414.921 1480.27 408.945 z" fill="rgb(58,10,14)" transform="translate(0,0)"></path>
<path d="M 1625.21 1189.33 C 1638.76 1188.21 1660.18 1194.88 1674.36 1197.01 C 1698.65 1200.66 1723.41 1203.15 1747.36 1208.38 C 1752.04 1209.4 1757.52 1211.33 1760.62 1215.22 C 1767.55 1224.35 1766.36 1236.61 1757.8 1244.3 C 1749.48 1248.16 1740.29 1247.07 1732.03 1243.62 C 1711.62 1235.1 1690.33 1225.19 1670.58 1215.17 C 1658 1208.78 1632.24 1199.78 1621.73 1192.34 L 1621.81 1190.7 L 1625.21 1189.33 z" fill="rgb(122,22,32)" transform="translate(0,0)"></path>
<path d="M 1114.21 78.9259 C 1127.37 80.9963 1131.72 90.7244 1130.81 103.695 C 1128.49 125.038 1121.36 145.699 1116.48 166.737 C 1112.54 183.674 1110.67 204.824 1105.47 220.817 C 1102.31 224.386 1101.74 224.897 1097.32 223.886 C 1095.85 222.602 1094.9 221.573 1094.03 219.78 C 1089.97 211.346 1096.33 102.938 1100.37 92.2897 C 1103.03 85.2811 1107.54 81.8438 1114.21 78.9259 z" fill="rgb(122,22,32)" transform="translate(0,0)"></path>
<path d="M 1513.18 549.184 C 1543.17 547.525 1526.49 570.265 1544.07 588.481 C 1549.1 593.69 1559.24 594.837 1560.36 600.388 C 1563.27 614.8 1552.12 626.528 1539.01 630.74 C 1533 632.146 1530.59 632.21 1524.38 632.717 C 1519.89 624.767 1517.67 617.815 1513.48 610.063 C 1508.01 598.907 1498.96 588.147 1493.88 576.996 C 1486.87 561.623 1502.1 553.699 1513.18 549.184 z" fill="rgb(58,10,14)" transform="translate(0,0)"></path>
<path d="M 1244.86 479.312 C 1249.16 478.97 1252.26 479.037 1256.54 479.075 C 1269.02 490.828 1273.73 500.91 1291.01 493.169 C 1295.83 491.626 1298.4 497.684 1295.25 500.582 C 1282.37 512.391 1272.66 526.35 1261.38 539.212 C 1258.23 542.555 1256.57 544.089 1252.89 546.834 C 1250.21 544.13 1247.47 541.175 1244.76 538.563 C 1240.22 533.86 1229.46 527.747 1222.5 529.095 C 1210.22 531.473 1211.31 524.349 1214.09 514.509 C 1216.76 505.052 1222.47 495.219 1227.51 486.497 C 1230.68 481.019 1239.11 480.237 1244.86 479.312 z" fill="rgb(58,10,14)" transform="translate(0,0)"></path>
<path d="M 1836.62 685.106 C 1838.4 685.311 1841.73 685.734 1842.84 687.171 C 1852.2 699.292 1827.95 735.244 1825.14 750.513 C 1820.76 762.218 1820.76 767.466 1821.01 779.009 C 1821.33 793.931 1806.71 772.949 1806.35 772.499 C 1801.5 764.991 1784.5 736.165 1786.47 728.17 C 1790.88 710.276 1819.97 690.849 1836.62 685.106 z" fill="rgb(94,16,24)" transform="translate(0,0)"></path>
<path d="M 292.695 775.747 C 303.523 773.068 314.955 776.431 322.608 784.548 C 330.261 792.664 332.946 804.274 329.636 814.926 C 326.325 825.579 317.532 833.622 306.627 835.971 C 290.117 839.527 273.809 829.174 270.002 812.72 C 266.195 796.266 276.3 779.802 292.695 775.747 z" fill="rgb(138,28,43)" transform="translate(0,0)"></path>
<path d="M 494.259 408.044 C 503.774 408.245 508.144 412.706 514.935 418.788 C 530.052 432.326 540.953 450.002 554.681 464.827 C 568.017 479.228 583.242 492.01 596.38 506.608 C 598.466 508.931 599.933 510.326 599.697 512.884 C 596.18 513.014 597.934 513.161 594.163 511.101 C 575.827 497.877 492.688 442.319 485.657 429.592 C 483.481 425.654 482.519 421.179 484.089 416.844 C 485.895 411.857 489.672 410.068 494.259 408.044 z" fill="rgb(122,22,32)" transform="translate(0,0)"></path>
<path d="M 209.063 1183.92 C 215.154 1183.06 222.694 1186.96 228.214 1189.64 C 243.557 1197.08 258.088 1198.73 274.283 1202.56 C 264.754 1209.28 255.498 1213.9 245.695 1219.93 C 234.551 1226.53 214.617 1234.33 201.989 1234.68 C 193.61 1234.91 193.235 1219.44 194.806 1213.99 C 199.11 1199.07 194.821 1192.78 209.063 1183.92 z" fill="rgb(58,10,14)" transform="translate(0,0)"></path>
<path d="M 1272.62 1671.54 C 1283.9 1685.38 1294.74 1711.04 1304.38 1727.43 C 1312.71 1741.59 1323.62 1757.34 1329.46 1772.36 C 1332.12 1779.2 1328.08 1788.78 1325.06 1795.1 C 1315.3 1806.46 1306.12 1798.81 1303.47 1786.73 C 1301.08 1775.83 1298.69 1764.47 1295.77 1753.78 C 1288.45 1727.03 1274.58 1699.27 1272.62 1671.54 z" fill="rgb(122,22,32)" transform="translate(0,0)"></path>
<path d="M 1387.55 1672.22 C 1419.83 1670.37 1429.54 1716.93 1391.69 1724.64 C 1371.63 1725.22 1357.75 1707.22 1364.63 1687.74 C 1367.85 1678.61 1379.02 1675.19 1387.55 1672.22 z" fill="rgb(122,22,32)" transform="translate(0,0)"></path>
<path d="M 549.16 1618.43 C 556.218 1618.04 567.893 1617.53 568.534 1627.57 C 568.892 1633.18 563.768 1658.07 557.055 1657.73 C 545.923 1657.17 533.924 1656.98 522.43 1657.19 C 513.558 1656.99 506.412 1658.16 503.221 1647.49 C 501.666 1642.29 504.893 1628.12 510.046 1626.55 C 512.431 1627.18 511.538 1631.3 517.514 1627.45 C 527.216 1621.19 537.879 1619.85 549.16 1618.43 z" fill="rgb(94,16,24)" transform="translate(0,0)"></path>
<path d="M 1833.27 1353.43 C 1847.18 1353.12 1860.27 1354.03 1873.99 1356.4 C 1893.06 1359.7 1902.97 1381.42 1883.65 1392.38 C 1865.55 1393.28 1852.93 1382.26 1838.46 1372.91 C 1833.39 1369.63 1811.5 1356.71 1829.51 1353.99 L 1833.27 1353.43 z" fill="rgb(122,22,32)" transform="translate(0,0)"></path>
<path d="M 232.205 1513.19 C 258.984 1518.55 257.407 1550.64 236.519 1556.11 L 232.195 1557.23 C 221.887 1556.01 214.254 1552.63 212.45 1541.61 C 209.751 1525.12 217.418 1516.28 232.205 1513.19 z" fill="rgb(122,22,32)" transform="translate(0,0)"></path>
<path d="M 715.463 437.198 C 718.629 437.956 723.957 439.408 726.034 442.077 C 740.305 460.576 751.664 481.288 766.314 499.738 C 773.593 508.906 777.731 511.78 768.568 519.13 C 748.349 510.047 726.074 466.181 713.51 447.827 C 710.371 443.24 710.069 439.526 715.463 437.198 z" fill="rgb(122,22,32)" transform="translate(0,0)"></path>
<path d="M 980.187 328.436 C 993.94 332.956 991.749 355.686 992.492 367.376 C 992.904 373.843 993.143 381.022 993.117 387.496 C 993.079 397.357 998.133 406.239 988.992 412.819 L 987.642 413.829 C 983.15 413.389 979.446 413.003 979.023 407.519 C 977.702 390.376 974.789 373.434 973.977 356.261 C 973.365 343.306 972.277 338.918 980.187 328.436 z" fill="rgb(122,22,32)" transform="translate(0,0)"></path>
<path d="M 1729.75 368.858 C 1741.11 368.011 1750.98 376.586 1751.74 387.954 C 1752.49 399.322 1743.83 409.125 1732.46 409.784 C 1721.22 410.435 1711.55 401.901 1710.81 390.665 C 1710.06 379.429 1718.52 369.695 1729.75 368.858 z" fill="rgb(122,22,32)" transform="translate(0,0)"></path>
<path d="M 413.388 765.945 C 424.257 763.331 435.191 770.009 437.828 780.873 C 440.465 791.736 433.809 802.684 422.951 805.343 C 412.061 808.011 401.074 801.331 398.429 790.436 C 395.785 779.54 402.487 768.567 413.388 765.945 z" fill="rgb(122,22,32)" transform="translate(0,0)"></path>
<path d="M 545.701 527.388 C 557.632 526.945 562.272 526.746 565.71 539.017 C 570.036 554.464 565.202 562.631 549.661 566.645 C 523.429 562.259 518.004 534.079 545.701 527.388 z" fill="rgb(122,22,32)" transform="translate(0,0)"></path>
<path d="M 1513.62 1474.01 C 1530.56 1484.03 1573.16 1491.68 1556.37 1518.72 C 1533.6 1537.28 1516.75 1489.56 1513.62 1474.01 z" fill="rgb(122,22,32)" transform="translate(0,0)"></path>
<path d="M 1039.11 310.013 C 1042.61 310.656 1045.61 311.064 1048.06 313.976 C 1053.43 321.109 1049.61 332.802 1049.09 341.004 C 1048.41 351.155 1045.55 360.975 1044.18 371.016 C 1043.75 374.183 1044.79 374.979 1041.25 375.413 L 1039.94 375.602 C 1039.29 374.732 1038.66 373.855 1038.03 372.973 C 1031.45 363.521 1025.38 337.56 1027.37 325.548 C 1028.69 317.583 1032.78 314.34 1039.11 310.013 z" fill="rgb(122,22,32)" transform="translate(0,0)"></path>
<path d="M 412.498 822.228 C 414.247 822.049 418.311 821.495 419.986 821.715 C 426.147 822.525 469.749 840.508 468.993 845.425 C 467.979 846.572 461.118 846.579 459.251 846.698 C 448.458 847.728 438.349 848.702 427.5 849.267 C 411.99 850.075 395.923 832.13 412.498 822.228 z" fill="rgb(122,22,32)" transform="translate(0,0)"></path>
<path d="M 475.56 656.059 C 498.837 658.785 499.455 690.594 476.452 694.67 C 452.955 686.411 449.726 664.275 475.56 656.059 z" fill="rgb(122,22,32)" transform="translate(0,0)"></path>
<path d="M 250.107 252.038 C 277.623 252.011 277.441 283.604 262.009 287.054 L 258.958 287.705 C 250.901 287.458 243.428 288.072 239.028 279.992 C 231.838 266.787 238.076 258.373 250.107 252.038 z" fill="rgb(122,22,32)" transform="translate(0,0)"></path>
<path d="M 1740.03 1092.27 C 1775.99 1087.81 1773.43 1126.86 1747.33 1118.98 L 1745.67 1118.52 C 1734.48 1113.53 1724.85 1111.56 1716.2 1101.77 L 1713.65 1098.85 L 1715.56 1098.29 C 1723.6 1095.81 1731.77 1093.8 1740.03 1092.27 z" fill="rgb(122,22,32)" transform="translate(0,0)"></path>
<path d="M 1556.74 1318.87 C 1569.48 1319.06 1618.08 1321.27 1600.9 1345.14 C 1586.49 1352.81 1581.38 1346.14 1568.62 1337.64 C 1559.71 1331.7 1558.39 1329.12 1556.74 1318.87 z" fill="rgb(122,22,32)" transform="translate(0,0)"></path>
<path d="M 1778.08 816.131 C 1801.23 813.278 1809.05 835.149 1790.51 848.452 C 1781.85 850.897 1773.31 850.364 1769.27 839.983 C 1764.88 828.689 1767.29 821.573 1778.08 816.131 z" fill="rgb(138,28,43)" transform="translate(0,0)"></path>
<path d="M 680.828 519.887 C 687.132 520.048 692.071 521.133 695.445 527.125 C 700.846 536.716 707.669 550.757 696.257 558.387 C 690.23 556.955 685.854 556.148 681.201 551.414 C 676.165 546.246 673.544 539.192 673.985 531.989 C 674.314 526.048 676.838 523.431 680.828 519.887 z" fill="rgb(122,22,32)" transform="translate(0,0)"></path>
<path d="M 500.193 1592.81 C 518.679 1594.76 524.088 1614.9 506.567 1625.28 C 486.03 1623.28 482.045 1602.52 500.193 1592.81 z" fill="rgb(122,22,32)" transform="translate(0,0)"></path>
<path d="M 1317.1 1596.09 C 1319.09 1595.95 1321.56 1595.68 1323.52 1595.98 C 1326.65 1596.45 1329.45 1598.2 1331.27 1600.8 C 1336.23 1608.06 1334.2 1618.91 1327.09 1623.94 C 1320.98 1624.14 1316.57 1625.37 1312.54 1619.88 C 1306.83 1612.09 1307.16 1602.7 1315.45 1597.24 L 1317.1 1596.09 z" fill="rgb(122,22,32)" transform="translate(0,0)"></path>
<path d="M 1475.48 1403.56 C 1482.79 1402.86 1489.31 1408.15 1490.12 1415.45 C 1490.93 1422.74 1485.74 1429.34 1478.46 1430.26 C 1473.65 1430.87 1468.88 1428.84 1465.99 1424.95 C 1463.1 1421.06 1462.52 1415.92 1464.49 1411.49 C 1466.46 1407.05 1470.66 1404.03 1475.48 1403.56 z" fill="rgb(122,22,32)" transform="translate(0,0)"></path>
<path d="M 997.332 452.745 C 1012.74 451.602 1014.17 481.394 1003.24 483.214 L 1001.25 483.583 L 999.855 482.847 C 986.738 476.071 981.518 462.762 995.746 453.771 L 997.332 452.745 z" fill="rgb(122,22,32)" transform="translate(0,0)"></path>
<path d="M 1645.13 1380.83 C 1651.88 1379.59 1658.34 1384.07 1659.55 1390.82 C 1660.76 1397.57 1656.26 1404.02 1649.51 1405.21 C 1642.79 1406.39 1636.38 1401.92 1635.17 1395.2 C 1633.96 1388.48 1638.42 1382.05 1645.13 1380.83 z" fill="rgb(122,22,32)" transform="translate(0,0)"></path>
<path d="M 880.837 432.692 C 897.407 434.313 896.19 454.216 887.344 463.332 L 886.054 464.703 C 870.543 458.542 869.484 443.782 880.837 432.692 z" fill="rgb(122,22,32)" transform="translate(0,0)"></path>
<path d="M 1142.96 410.96 C 1144.73 410.851 1146.22 410.651 1148.01 410.755 C 1150.4 410.916 1152.61 412.092 1154.07 413.987 C 1160.12 421.8 1156.42 429.687 1149.33 434.836 C 1132.22 436.122 1131.58 420.687 1142.96 410.96 z" fill="rgb(122,22,32)" transform="translate(0,0)"></path>
<path d="M 623.192 529.845 C 640.035 529.045 637.499 549.369 628.315 556.536 C 615.402 552.313 609.901 538.007 621.669 530.8 L 623.192 529.845 z" fill="rgb(122,22,32)" transform="translate(0,0)"></path>
<path d="M 1505.95 509.037 C 1531.26 508.517 1515.93 521.426 1511.63 530.9 L 1510.05 534.455 C 1509.02 537.583 1505.48 533.808 1504.77 532.579 C 1498.45 521.681 1494.67 516.534 1505.95 509.037 z" fill="rgb(58,10,14)" transform="translate(0,0)"></path>
<path d="M 384.821 948.011 C 400.569 947.941 400.42 961.798 389.307 968.237 C 371.999 968.514 373.422 954.604 384.821 948.011 z" fill="rgb(122,22,32)" transform="translate(0,0)"></path>
<path d="M 429.256 602.738 C 443.248 603.299 442.268 618.8 433.472 625.45 C 418.47 623.728 417.495 610.682 429.256 602.738 z" fill="rgb(122,22,32)" transform="translate(0,0)"></path>
<path d="M 1161.38 1716.45 C 1166.5 1716.59 1170.67 1720.63 1170.96 1725.74 C 1171.26 1730.86 1167.58 1735.35 1162.51 1736.07 C 1158.83 1736.59 1155.16 1735 1153.04 1731.95 C 1150.91 1728.9 1150.68 1724.91 1152.44 1721.64 C 1154.21 1718.36 1157.66 1716.36 1161.38 1716.45 z" fill="rgb(122,22,32)" transform="translate(0,0)"></path>
<path d="M 512.376 782.618 C 514.445 783.474 516.503 784.309 518.138 785.893 C 519.942 787.626 520.986 790.003 521.042 792.504 C 521.112 795.951 519.197 797.55 516.806 799.75 C 506.528 797.901 502.331 792.724 511.037 784.026 L 512.376 782.618 z" fill="rgb(122,22,32)" transform="translate(0,0)"></path>
<path d="M 1516.33 1308.61 C 1525.81 1308.67 1534.54 1312.49 1525.31 1321.73 C 1514 1326.33 1511.83 1317.47 1516.33 1308.61 z" fill="rgb(122,22,32)" transform="translate(0,0)"></path>
<path d="M 1462.14 514.84 C 1463 518.294 1463.03 520.494 1464.37 523.751 C 1461.89 523.214 1459.4 522.709 1456.91 522.239 L 1455.66 521.567 C 1457.12 518.38 1456.75 517.936 1458.99 515.058 L 1459.2 516.347 C 1459.72 520.008 1461.59 517.321 1462.14 514.84 z" fill="rgb(255,255,255)" fill-opacity="0.262745" transform="translate(0,0)"></path>
<path d="M 495.075 813.89 C 499.7 815.172 504.07 816.797 508.58 817.966 L 506.92 821.116 C 503.185 819.143 498.72 816.168 495.075 813.89 z" fill="rgb(138,28,43)" transform="translate(0,0)"></path>
<path d="M 1682.88 975.979 L 1686.21 979.129 C 1683.7 979.307 1680.74 980.035 1678.27 979.906 C 1677.95 979.889 1677.54 979.857 1677.36 979.547 C 1677.32 979.481 1677.32 979.378 1677.35 979.308 C 1677.57 978.725 1678.43 978.298 1678.93 978.04 C 1680.25 977.353 1681.57 976.696 1682.88 975.979 z" fill="rgb(138,28,43)" transform="translate(0,0)"></path>
<path d="M 1458.99 515.058 C 1460.5 513.423 1460.4 513.406 1462.14 514.84 C 1461.59 517.321 1459.72 520.008 1459.2 516.347 L 1458.99 515.058 z" fill="rgb(255,255,255)" fill-opacity="0.380392" transform="translate(0,0)"></path>
<metadata><recraft-signature>{"signed_by": "recraft", "signature_b64": "toCuB/hlHLBYY3Tqu4Nlz1+Zq9mfPVM5Y7PHOkmUr0H5CH7Rusnd7OArE69yFQptXWG1AdAc0UUp6L2yOHx7DA==", "signing_algo": "Ed25519", "generation_timestamp": 1781399942, "identifier": "2487ed64-3e8b-465c-bd90-a93e3a4b47a2"}</recraft-signature></metadata></svg>